<?xml version="1.0" encoding="UTF-8" standalone="no"?>
<!-- Created with Inkscape (http://www.inkscape.org/) -->

<svg
   width="1000.0001"
   height="1000.0001"
   viewBox="0 0 264.58335 264.58335"
   version="1.1"
   id="svg1"
   inkscape:version="1.3.2 (091e20e, 2023-11-25, custom)"
   sodipodi:docname="The Melodic Monk Academy 2.svg"
   inkscape:export-filename="The Melodic Monk Academy 2.png"
   inkscape:export-xdpi="96"
   inkscape:export-ydpi="96"
   xml:space="preserve"
   xmlns:inkscape="http://www.inkscape.org/namespaces/inkscape"
   xmlns:sodipodi="http://sodipodi.sourceforge.net/DTD/sodipodi-0.dtd"
   xmlns="http://www.w3.org/2000/svg"
   xmlns:svg="http://www.w3.org/2000/svg"><sodipodi:namedview
     id="namedview1"
     pagecolor="#ffffff"
     bordercolor="#999999"
     borderopacity="1"
     inkscape:showpageshadow="2"
     inkscape:pageopacity="0"
     inkscape:pagecheckerboard="true"
     inkscape:deskcolor="#d1d1d1"
     inkscape:document-units="px"
     inkscape:zoom="0.32"
     inkscape:cx="-248.4375"
     inkscape:cy="1223.4375"
     inkscape:window-width="1920"
     inkscape:window-height="1051"
     inkscape:window-x="-9"
     inkscape:window-y="-9"
     inkscape:window-maximized="1"
     inkscape:current-layer="layer1"
     showguides="true" /><defs
     id="defs1" /><g
     inkscape:label="Layer 1"
     inkscape:groupmode="layer"
     id="layer1"
     transform="translate(3050.058,127.69501)"><path
       style="fill:#a61212;fill-opacity:1;stroke:none;stroke-width:4.54878"
       d="m -2945.4501,-114.26046 h 53.7434 c -13.6584,-17.92218 -40.0993,-17.9033 -53.7434,0 m -62.3808,9.65959 v 65.685208 c 0,8.22593 -2.4608,21.28899 0.8232,28.89231 4.6908,10.85945971 22.9487,20.76001 31.8064,28.36163 13.9405,11.96337 33.1677,34.92573 51.8242,38.06145 13.41,2.25392 22.996,-5.85893 32.6299,-13.93633 l 39.3478,-33.0036003 c 6.5578,-5.50934 17.0425,-11.55998 20.9418,-19.39669 3.5687,-7.1722697 1.1313,-20.1098897 1.1313,-28.0128097 v -66.651168 h -178.5046 m 106.5272,50.229868 c 1.248,-6.15009 9.4862,-9.30466 9.3772,-0.96152 -0.1311,9.7239 -3.8693,20.46473 -5.9456,29.94025 -0.7577,3.45987 -2.9296,8.98353 -0.6371,12.24667 2.2642,3.2225497 6.9425,1.40785 9.6814,-0.0929 6.8178,-3.73453 11.35,-11.4198 12.939,-18.91595 7.3502,-34.67583 -31.8208,-52.09463 -59.0049,-39.29202 -27.2028,12.81149 -45.4506,52.25631 -17.2708,74.3751097 23.883,18.7462203 58.909,12.7447603 80.6113,-5.00867 3.0189,-2.46947 10.1916,-3.54641 8.7426,2.77264001 -3.2477,14.16198029 -29.1323,21.83794029 -41.3725,22.19919029 -32.1005,0.94738 -67.1115,-7.63848 -71.7031,-45.38667 -7.054,-57.99284 89.8619,-91.617478 108.1311,-29.94471 5.4429,18.37332 -1.3848,46.7452597 -22.9921,50.7433897 -7.8568,1.45378001 -12.3084,-4.89602 -19.1941,-4.95574 -4.0299,-0.0353 -8.4823,3.56258 -12.4761,4.5391 -12.1377,2.96774001 -24.4776,-2.84243 -27.6012,-15.5522297 -4.4422,-18.07549 9.8598,-43.36699 29.5206,-44.33275 7.5769,-0.37217 13.0846,3.83495 19.1941,7.6263 m -118.0438,-8.69362 -27.8313,19.31917 c 4.8174,9.57602 19.8044,19.46311 28.791,25.11493 0,-12.56076 3.8483,-32.90163 -0.9596,-44.4341 m 199.6187,0 v 44.4341 c 9.1075,-3.55038 25.327,-16.32114 29.7509,-25.11493 l -29.7509,-19.31917 m -104.6078,11.3284 c -9.5349,3.42731 -16.7313,15.48613 -17.0251,25.37803 -0.3356,11.3094 8.2135,18.1230097 18.9445,14.38429 10.338,-3.60182 17.7255,-15.07061 17.2294,-25.9758 -0.4208,-9.25865 -10.0156,-17.06948 -19.1488,-13.78652 m -125.7213,19.58228 V 131.09262 l 32.6299,-26.271 65.2599,-54.869572 v -0.96597 l -64.3002,-53.7210203 -33.5896,-27.4195097 m 261.9993,0 -96.9301,81.14053 v 0.96597 l 62.3807,52.400272 35.5092,28.7403 V 16.143448 c 0,-13.5604103 4.2283,-35.85348 -0.9596,-48.29795 m -157.3915,87.90225 c -30.7005,26.99187 -62.3403,57.029272 -95.9704,80.174572 v 0.966 h 245.6844 v -0.966 c -24.3537,-16.761 -46.2626,-38.560692 -69.0988,-57.401492 -7.7148,-6.36507 -15.9208,-16.07425 -24.9523,-20.37978 -6.018,-2.86894 -18.9246,6.78961 -25.9121,7.80442 -10.8717,1.57891 -20.7573,-5.17808 -29.7508,-10.19772 z"
       id="path20"
       inkscape:export-filename="path20.png"
       inkscape:export-xdpi="96"
       inkscape:export-ydpi="96" /></g></svg>
