<?xml version="1.0" encoding="UTF-8" standalone="no"?>
<!-- Created with Inkscape (http://www.inkscape.org/) -->

<svg
   width="1000.0001"
   height="999.99945"
   viewBox="0 0 264.58335 264.58319"
   version="1.1"
   id="svg1"
   inkscape:version="1.3.2 (091e20e, 2023-11-25, custom)"
   sodipodi:docname="The Melodic Monk Academy 2.svg"
   inkscape:export-filename="The Melodic Monk Academy 2.png"
   inkscape:export-xdpi="96"
   inkscape:export-ydpi="96"
   xml:space="preserve"
   xmlns:inkscape="http://www.inkscape.org/namespaces/inkscape"
   xmlns:sodipodi="http://sodipodi.sourceforge.net/DTD/sodipodi-0.dtd"
   xmlns="http://www.w3.org/2000/svg"
   xmlns:svg="http://www.w3.org/2000/svg"><sodipodi:namedview
     id="namedview1"
     pagecolor="#ffffff"
     bordercolor="#999999"
     borderopacity="1"
     inkscape:showpageshadow="2"
     inkscape:pageopacity="0"
     inkscape:pagecheckerboard="true"
     inkscape:deskcolor="#d1d1d1"
     inkscape:document-units="px"
     inkscape:zoom="0.32"
     inkscape:cx="-248.4375"
     inkscape:cy="1223.4375"
     inkscape:window-width="1920"
     inkscape:window-height="1051"
     inkscape:window-x="-9"
     inkscape:window-y="-9"
     inkscape:window-maximized="1"
     inkscape:current-layer="layer1"
     showguides="true" /><defs
     id="defs1" /><g
     inkscape:label="Layer 1"
     inkscape:groupmode="layer"
     id="layer1"
     transform="translate(2478.8714,-839.77077)"><path
       style="fill:#a61212;fill-opacity:1;stroke:none;stroke-width:0.589375"
       d="m -2367.4161,1104.3538 v -92.9296 h -33.4506 v -38.47414 h 33.4506 c 0,-26.89394 -3.7469,-60.87466 24.6479,-75.40606 4.3762,-2.24078 9.2458,-3.94866 14.0843,-4.81882 13.871,-2.49479 27.2991,0.90537 41.0796,1.5014 v 33.14702 c -9.774,0 -22.6881,-2.22066 -31.1007,3.92829 -11.1924,8.18151 -7.0448,29.5512 -7.0448,41.64868 h 36.385 l -5.2818,38.47383 h -31.1032 v 92.9296 c 13.6077,-0.2841 27.956,-6.8483 39.9061,-12.874 50.6463,-25.5467 79.6028,-85.0049 69.5866,-141.02204 -11.8007,-65.99074 -68.6002,-110.79286 -134.1403,-110.68698 -70.3961,0.12575 -128.474,63.43484 -128.474,133.17959 0,49.70843 28.5867,96.85963 72.7232,119.12143 11.4853,5.7888 25.6813,12.0097 38.7321,12.282"
       id="path10-7"
       inkscape:export-filename="..\..\Users\theme\OneDrive\Desktop\Market\Social\Facebook.png"
       inkscape:export-xdpi="96"
       inkscape:export-ydpi="96" /></g></svg>
