<?xml version="1.0" encoding="UTF-8" standalone="no"?>
<!-- Created with Inkscape (http://www.inkscape.org/) -->

<svg
   width="1000.0001"
   height="999.99957"
   viewBox="0 0 264.58335 264.58322"
   version="1.1"
   id="svg1"
   inkscape:version="1.3.2 (091e20e, 2023-11-25, custom)"
   sodipodi:docname="The Melodic Monk Academy 2.svg"
   inkscape:export-filename="The Melodic Monk Academy 2.png"
   inkscape:export-xdpi="96"
   inkscape:export-ydpi="96"
   xml:space="preserve"
   xmlns:inkscape="http://www.inkscape.org/namespaces/inkscape"
   xmlns:sodipodi="http://sodipodi.sourceforge.net/DTD/sodipodi-0.dtd"
   xmlns="http://www.w3.org/2000/svg"
   xmlns:svg="http://www.w3.org/2000/svg"><sodipodi:namedview
     id="namedview1"
     pagecolor="#ffffff"
     bordercolor="#999999"
     borderopacity="1"
     inkscape:showpageshadow="2"
     inkscape:pageopacity="0"
     inkscape:pagecheckerboard="true"
     inkscape:deskcolor="#d1d1d1"
     inkscape:document-units="px"
     inkscape:zoom="0.32"
     inkscape:cx="-248.4375"
     inkscape:cy="1223.4375"
     inkscape:window-width="1920"
     inkscape:window-height="1051"
     inkscape:window-x="-9"
     inkscape:window-y="-9"
     inkscape:window-maximized="1"
     inkscape:current-layer="layer1"
     showguides="true" /><defs
     id="defs1" /><g
     inkscape:label="Layer 1"
     inkscape:groupmode="layer"
     id="layer1"
     transform="translate(3050.8793,-246.1893)"><path
       style="fill:#a61212;fill-opacity:1;stroke-width:2.58336"
       d="m -2926.1399,510.65555 c -5.9002,-0.4426 -13.3747,-1.4375 -18.5923,-2.475 -26.2534,-5.2202 -51.1412,-19.0088 -69.7485,-38.6422 -48.6526,-51.3361 -48.5145,-131.2911 0.3155,-182.6417 18.3928,-19.342 43.2236,-33.0446 69.433,-38.3152 9.5072,-1.9118 15.0001,-2.4073 26.5215,-2.3918 21.6592,0.028 38.7852,4.0151 58.2378,13.5546 28.8061,14.1259 51.6694,38.4996 63.848,68.0651 6.704,16.2755 9.8094,32.2549 9.829,50.5779 0.038,35.6901 -13.4436,68.2997 -38.663,93.5171 -20.342,20.3404 -46.0226,33.3161 -74.0903,37.4351 -6.8674,1.0077 -21.634,1.7251 -27.0907,1.3161 z m 21.8734,-46.7156 c 16.9839,-1.5966 31.7859,-6.4995 38.0558,-12.606 8.9733,-8.7397 0.609,-18.308 -20.7635,-23.7525 -6.6065,-1.683 -8.3723,-1.7041 -4.3555,-0.052 4.7166,1.9398 7.68,3.8471 10.1645,6.5423 3.9582,4.2938 3.67,8.2858 -0.9075,12.567 -6.8653,6.4212 -19.5985,9.8742 -36.4115,9.8742 -10.2313,0 -17.2386,-0.9519 -24.3341,-3.3055 -19.7579,-6.5535 -21.0356,-18.1863 -2.8203,-25.678 4.0167,-1.6521 2.251,-1.6308 -4.3556,0.052 -34.785,8.8613 -31.6449,27.5461 5.8337,34.7136 3.2947,0.6302 7.9589,1.3526 10.365,1.6059 6.3808,0.6705 22.5795,0.692 29.529,0.039 z m -5.4683,-15.885 c 8.5447,-1.0262 16.266,-4.2471 17.6938,-7.3805 1.3699,-3.0064 0.2008,-5.1085 -4.1616,-7.4825 -2.5768,-1.4024 -10.6742,-3.6851 -12.9854,-3.6612 -0.7183,0 -2.0887,1.3668 -3.9929,3.9604 -1.5946,2.172 -3.4637,4.6436 -4.1535,5.4925 l -1.2542,1.5433 -4.049,-5.5218 -4.0491,-5.5218 -2.8102,0.3195 c -6.086,0.6914 -13.3534,3.7498 -15.2101,6.4003 -1.8442,2.6328 -0.1447,6.1636 3.9973,8.3043 6.5542,3.3874 19.7376,4.8976 30.9749,3.5475 z m -0.046,-24.5579 c 25.8191,-36.2155 39.5759,-67.1576 38.41,-86.3922 -0.6117,-10.092 -4.1045,-19.3493 -10.1892,-27.0055 -4.4204,-5.5619 -9.5522,-9.6657 -16.1328,-12.9003 -8.0345,-3.949 -11.0365,-4.6153 -20.7916,-4.6153 -9.7091,0 -12.68,0.6552 -20.7797,4.5839 -12.0345,5.8371 -20.6176,16.0278 -24.6792,29.3018 -1.3344,4.3613 -1.4987,5.7573 -1.5093,12.8224 -0.01,6.4698 0.2219,8.8843 1.2587,13.1229 4.9111,20.0791 19.9524,48.2806 40.5263,75.9844 l 5.0616,6.8156 1.5864,-1.8946 c 0.8725,-1.042 4.13,-5.4626 7.2388,-9.8231 z m -13.1291,-62.897 c -3.8112,-0.7556 -7.4768,-2.8142 -10.6366,-5.9738 -10.6384,-10.6375 -7.6748,-27.8964 5.9411,-34.5989 3.3686,-1.6582 4.0246,-1.7866 9.121,-1.7866 5.0964,0 5.7524,0.1292 9.1211,1.7866 4.6399,2.2841 9.1611,7.0385 10.8918,11.4541 0.9473,2.4166 1.2479,4.3237 1.274,8.084 0.031,4.4264 -0.1395,5.2882 -1.6935,8.5733 -4.4818,9.4743 -14.0489,14.4377 -24.0189,12.4613 z"
       id="path23-8" /></g></svg>
