<?xml version="1.0" encoding="UTF-8" standalone="no"?>
<!-- Created with Inkscape (http://www.inkscape.org/) -->

<svg
   width="1000.0001"
   height="999.99957"
   viewBox="0 0 264.58335 264.58322"
   version="1.1"
   id="svg1"
   inkscape:version="1.3.2 (091e20e, 2023-11-25, custom)"
   sodipodi:docname="The Melodic Monk Academy 2.svg"
   inkscape:export-filename="The Melodic Monk Academy 2.png"
   inkscape:export-xdpi="96"
   inkscape:export-ydpi="96"
   xml:space="preserve"
   xmlns:inkscape="http://www.inkscape.org/namespaces/inkscape"
   xmlns:sodipodi="http://sodipodi.sourceforge.net/DTD/sodipodi-0.dtd"
   xmlns="http://www.w3.org/2000/svg"
   xmlns:svg="http://www.w3.org/2000/svg"><sodipodi:namedview
     id="namedview1"
     pagecolor="#ffffff"
     bordercolor="#999999"
     borderopacity="1"
     inkscape:showpageshadow="2"
     inkscape:pageopacity="0"
     inkscape:pagecheckerboard="true"
     inkscape:deskcolor="#d1d1d1"
     inkscape:document-units="px"
     inkscape:zoom="0.32"
     inkscape:cx="-248.4375"
     inkscape:cy="1223.4375"
     inkscape:window-width="1920"
     inkscape:window-height="1051"
     inkscape:window-x="-9"
     inkscape:window-y="-9"
     inkscape:window-maximized="1"
     inkscape:current-layer="layer1"
     showguides="true" /><defs
     id="defs1" /><g
     inkscape:label="Layer 1"
     inkscape:groupmode="layer"
     id="layer1"
     transform="translate(3048.1642,459.3731)"><path
       style="fill:#a61212;fill-opacity:1;stroke-width:2.4835"
       d="m -2926.0246,-194.95182 c -21.7168,-2.23415 -38.5493,-7.41341 -55.1834,-16.97959 -23.6188,-13.5831 -41.773,-32.98597 -53.8638,-57.56868 -6.6883,-13.59833 -9.3777,-22.75979 -12.132,-41.32746 -0.9986,-6.73137 -1.0969,-9.0706 -0.8396,-19.98006 0.5286,-22.41384 4.0769,-36.99965 13.5116,-55.54035 6.4587,-12.6924 14.8077,-24.0413 25.6958,-34.9286 7.7488,-7.7482 11.6555,-10.9589 20.6314,-16.9558 15.6444,-10.4521 31.8787,-16.7163 51.6689,-19.9369 8.2662,-1.3452 28.4429,-1.6302 36.2634,-0.5123 34.0334,4.8653 60.6215,18.5291 81.8848,42.081 10.0626,11.1456 14.8658,18.2967 21.4262,31.8994 6.2198,12.89634 10.2043,25.57499 12.4187,39.51624 1.2902,8.12266 1.2804,26.49715 -0.019,35.3844 -1.6866,11.53654 -5.5788,25.35751 -10.2239,36.30416 -9.2478,21.79379 -25.1159,40.8282 -46.099,55.29758 -17.706,12.20959 -35.3501,19.1374 -56.7601,22.28638 -5.5046,0.8096 -23.8212,1.42957 -28.3801,0.96058 z m 58.3063,-61.54057 c 9.4202,-2.36967 18.9783,-9.32698 22.1363,-16.11299 1.5453,-3.32038 1.7343,-9.24366 0.4528,-14.19122 -2.2422,-8.65695 -5.4887,-11.08161 -18.0914,-13.51196 -6.3097,-1.21676 -13.0557,-3.15437 -15.5944,-4.47909 -0.8479,-0.44244 -2.9072,-0.77689 -4.7948,-0.77873 -2.7343,-0.002 -3.5142,0.20245 -4.4926,1.18124 -0.6512,0.65149 -1.8276,1.60646 -2.6143,2.12215 -0.7867,0.51569 -2.9829,2.34522 -4.8805,4.0656 -4.359,3.95208 -6.5745,4.71672 -9.9404,3.43073 -6.0728,-2.32028 -14.8004,-9.93877 -28.0365,-24.47354 -5.1352,-5.63912 -10.563,-12.07595 -12.0617,-14.30407 -2.4507,-3.64339 -2.725,-4.33832 -2.725,-6.90445 0,-2.82939 0.035,-2.89243 4.2169,-7.51627 4.6762,-5.17093 6.8198,-8.8798 6.8198,-11.7997 0,-1.0644 -0.6809,-4.15299 -1.5131,-6.86352 -0.8322,-2.71052 -2.1539,-7.64915 -2.937,-10.97485 -2.9206,-12.4022 -4.7075,-15.936 -9.2192,-18.2317 -3.4235,-1.742 -8.6176,-2.9233 -13.134,-2.9871 -3.7468,-0.053 -4.0976,0.047 -7.0951,2.0164 -6.5139,4.2802 -11.5672,10.6321 -14.3389,18.0239 -2.7949,7.4537 -2.0491,21.18992 1.8157,33.44189 2.5107,7.95913 10.5957,22.7502 17.3656,31.7694 8.6676,11.54749 22.8229,25.79202 33.7106,33.92305 26.7585,19.98361 47.7745,27.47569 64.9512,23.15483 z"
       id="path21-0" /></g></svg>
