<?xml version="1.0" encoding="UTF-8" standalone="no"?>
<!-- Created with Inkscape (http://www.inkscape.org/) -->

<svg
   width="1000.0001"
   height="1000.0001"
   viewBox="0 0 264.58335 264.58335"
   version="1.1"
   id="svg1"
   inkscape:version="1.3.2 (091e20e, 2023-11-25, custom)"
   sodipodi:docname="The Melodic Monk Academy 2.svg"
   inkscape:export-filename="The Melodic Monk Academy 2.png"
   inkscape:export-xdpi="96"
   inkscape:export-ydpi="96"
   xml:space="preserve"
   xmlns:inkscape="http://www.inkscape.org/namespaces/inkscape"
   xmlns:sodipodi="http://sodipodi.sourceforge.net/DTD/sodipodi-0.dtd"
   xmlns="http://www.w3.org/2000/svg"
   xmlns:svg="http://www.w3.org/2000/svg"><sodipodi:namedview
     id="namedview1"
     pagecolor="#ffffff"
     bordercolor="#999999"
     borderopacity="1"
     inkscape:showpageshadow="2"
     inkscape:pageopacity="0"
     inkscape:pagecheckerboard="true"
     inkscape:deskcolor="#d1d1d1"
     inkscape:document-units="px"
     inkscape:zoom="0.32"
     inkscape:cx="-248.4375"
     inkscape:cy="1223.4375"
     inkscape:window-width="1920"
     inkscape:window-height="1051"
     inkscape:window-x="-9"
     inkscape:window-y="-9"
     inkscape:window-maximized="1"
     inkscape:current-layer="layer1"
     showguides="true" /><defs
     id="defs1" /><g
     inkscape:label="Layer 1"
     inkscape:groupmode="layer"
     id="layer1"
     transform="translate(2444.7108,-1136.3713)"><path
       style="fill:#a61212;fill-opacity:1;stroke:none;stroke-width:0.588282"
       d="m -2323.4486,1137.0866 c -23.4036,3.0643 -45.2395,9.4278 -64.8473,23.0707 -14.1547,9.8506 -26.6825,22.6071 -35.9314,37.148 -36.2273,56.9607 -23.5338,135.8711 31.2149,176.7585 13.2525,9.9033 28.274,17.4703 44.2149,21.9964 18.0387,5.1308 36.8863,6.0348 55.4156,3.6104 18.186,-2.3834 35.6775,-8.9876 51.2882,-18.5095 11.8084,-7.2029 22.5146,-16.5486 31.3925,-27.1154 48.2764,-57.4656 38.3659,-146.8429 -22.55,-191.5343 -13.1289,-9.6334 -27.8847,-16.8188 -43.6243,-21.0631 -14.6848,-3.9625 -31.357,-6.3518 -46.5731,-4.3617 m 48.3408,96.0277 c -19.2474,8.2597 -37.8477,22.3017 -55.4156,33.6609 -5.0584,3.2758 -10.2221,6.3871 -15.3279,9.5924 -2.2162,1.3913 -4.9691,3.8099 -7.6627,4.0271 -3.1724,0.2527 -7.034,-1.9138 -10.0222,-2.8295 -6.1199,-1.8844 -12.1977,-3.8863 -18.2755,-5.8999 -2.3345,-0.7753 -5.7305,-1.3618 -6.7143,-3.9448 -1.3508,-3.5517 2.2753,-5.6005 4.9453,-6.8332 7.4641,-3.4401 15.2806,-6.3342 22.992,-9.1755 27.7018,-10.2086 55.4629,-20.2882 83.1226,-30.5849 6.6565,-2.4832 13.3472,-4.8901 20.0445,-7.2558 2.4279,-0.8565 6.2843,-2.2661 8.5412,-0.2816 2.8897,2.5419 1.1312,8.6765 0.6445,11.8935 -1.6967,10.8662 -4.5152,21.5444 -6.8261,32.2873 -3.9734,18.4625 -8.59,36.8663 -13.1881,55.182 -1.4086,5.6062 -2.057,16.0204 -9.8039,15.8149 -3.8076,-0.1048 -6.5841,-2.7942 -9.4317,-5.0015 -5.1821,-4.0096 -10.5115,-7.8958 -15.9172,-11.6 -2.1162,-1.45 -5.4885,-4.9781 -8.2532,-4.7082 -5.5188,0.5396 -12.6343,10.6843 -16.5077,14.2476 -1.6033,1.4793 -4.9927,4.8667 -7.4746,3.5047 -2.6003,-1.4266 -0.9996,-6.4869 -0.8286,-8.7353 0.4603,-6.2696 1.3152,-12.5157 1.769,-18.7853 0.2499,-3.352 0.01,-7.2206 2.499,-9.8095 13.2406,-13.7661 28.804,-25.4189 42.3577,-38.915 4.9572,-4.9371 11.2073,-9.7683 14.7374,-15.8501"
       id="path1427" /></g></svg>
