<?xml version="1.0" encoding="UTF-8" standalone="no"?>
<!-- Created with Inkscape (http://www.inkscape.org/) -->

<svg
   width="1000.0001"
   height="1000.0001"
   viewBox="0 0 264.58335 264.58335"
   version="1.1"
   id="svg1"
   inkscape:version="1.3.2 (091e20e, 2023-11-25, custom)"
   sodipodi:docname="The Melodic Monk Academy 2.svg"
   inkscape:export-filename="The Melodic Monk Academy 2.png"
   inkscape:export-xdpi="96"
   inkscape:export-ydpi="96"
   xml:space="preserve"
   xmlns:inkscape="http://www.inkscape.org/namespaces/inkscape"
   xmlns:sodipodi="http://sodipodi.sourceforge.net/DTD/sodipodi-0.dtd"
   xmlns="http://www.w3.org/2000/svg"
   xmlns:svg="http://www.w3.org/2000/svg"><sodipodi:namedview
     id="namedview1"
     pagecolor="#ffffff"
     bordercolor="#999999"
     borderopacity="1"
     inkscape:showpageshadow="2"
     inkscape:pageopacity="0"
     inkscape:pagecheckerboard="true"
     inkscape:deskcolor="#d1d1d1"
     inkscape:document-units="px"
     inkscape:zoom="0.32"
     inkscape:cx="-248.4375"
     inkscape:cy="1223.4375"
     inkscape:window-width="1920"
     inkscape:window-height="1051"
     inkscape:window-x="-9"
     inkscape:window-y="-9"
     inkscape:window-maximized="1"
     inkscape:current-layer="layer1"
     showguides="true" /><defs
     id="defs1" /><g
     inkscape:label="Layer 1"
     inkscape:groupmode="layer"
     id="layer1"
     transform="translate(2551.369,169.58757)"><g
       id="g1"
       transform="translate(-19.84375,158.75)"><path
         id="path8-7"
         style="fill:#a61212;fill-opacity:1;stroke:none;stroke-width:0.587251"
         d="m -2394.1285,-267.91683 c -14.159,-0.21266 -28.4399,3.73865 -40.6105,12.1238 -8.3009,5.72068 -15.1434,13.028 -20.3109,21.69015 -9.7706,16.3943 -12.3513,36.86553 -6.8957,55.14289 1.2525,4.19556 2.7511,8.43862 4.8028,12.31914 1.2998,2.46444 3.9325,5.3767 4.1677,8.21242 0.5994,7.29698 -4.4561,17.61054 -6.4549,24.63829 8.436,-0.3874 17.5246,-6.69918 25.8666,-5.88956 4.8617,0.47508 10.4942,5.15042 15.2854,6.75773 13.0979,4.39972 27.7478,5.3326 41.1515,1.62522 11.1462,-3.07983 21.5927,-8.58852 29.9816,-16.59537 6.8722,-6.55894 12.0691,-14.24316 16.0079,-22.85545 3.5978,-7.87531 5.732,-17.15049 5.7438,-25.81135 0.026,-16.17258 -4.4741,-31.60127 -14.4033,-44.58332 -13.2047,-17.25834 -33.6382,-26.46379 -54.332,-26.77459 z m -1.4847,13.51183 a 56.637371,56.637371 0 0 1 56.6461,56.626 v 0.0114 a 56.637371,56.637371 0 0 1 -56.6342,56.63737 56.637371,56.637371 0 0 1 -56.6405,-56.63168 56.637371,56.637371 0 0 1 56.6286,-56.64306 z" /><path
         style="fill:#a61212;fill-opacity:1;stroke:none;stroke-width:0.587251"
         d="m -2407.699,-327.71419 c -29.4704,3.863 -55.9073,12.17546 -78.7759,32.18344 -13.0626,11.42919 -23.8678,25.36443 -31.5984,40.89599 -36.6896,73.69404 5.0204,165.005695 84.5076,186.458572 16.2549,4.387949 33.8618,5.461411 50.5575,3.437643 62.0742,-7.508867 111.4914,-59.665605 115.7594,-121.847865 4.268,-62.24142 -36.4073,-119.33763 -96.3593,-136.51275 -13.6976,-3.92451 -29.8467,-6.48226 -44.0909,-4.61503 m -71.7213,214.45614 c 0.8224,-10.07238 5.1792,-20.76655 7.8893,-30.50441 1.023,-3.6723 3.539,-8.84107 3.1923,-12.65708 -0.6112,-6.69219 -6.4197,-14.57288 -8.2128,-21.36715 -4.4326,-16.85605 -2.8688,-35.41574 3.2627,-51.62302 4.1152,-10.89128 10.9406,-20.55885 19.1473,-28.74462 7.9247,-7.90765 17.219,-14.04204 27.6303,-18.18538 41.1339,-16.37035 89.4283,2.38055 107.9875,42.8237 6.6548,14.50534 8.4538,30.59824 6.6783,46.34326 -1.1752,10.39565 -4.7559,20.8405 -9.9469,29.91781 -6.4666,11.30433 -15.6728,21.3063 -26.531,28.5394 -18.6298,12.39533 -42.1744,16.66013 -64.0788,12.2604 -5.2026,-1.04441 -10.376,-2.69256 -15.2849,-4.69303 -2.6102,-1.06796 -5.3319,-3.1912 -8.2303,-3.22051 -4.4032,-0.0524 -9.2826,2.19391 -13.5212,3.2675 -10.0056,2.5283 -20.0467,5.05084 -29.9818,7.84313"
         id="path9-4" /><path
         id="path22"
         style="opacity:0.950257;fill:#a61212;fill-opacity:1;stroke-width:2.75267"
         d="m -2395.0167,-267.92727 c -4.1045,-0.005 -8.1451,0.15439 -11.2091,0.45805 a 69.78207,69.78207 0 0 0 -8.6087,1.87341 c -0.08,0.024 -0.1597,0.0497 -0.2369,0.074 a 69.78207,69.78207 0 0 0 -8.3413,3.11239 c -0.4507,0.20073 -0.9109,0.38511 -1.3557,0.59461 a 69.78207,69.78207 0 0 0 -7.172,3.9175 c -0.7654,0.47736 -1.5176,0.97318 -2.262,1.4794 a 69.78207,69.78207 0 0 0 -4.8064,3.6003 c -1.4873,1.21556 -2.9316,2.48399 -4.316,3.82506 a 69.78207,69.78207 0 0 0 -1.0724,1.07399 c -5.225,5.28922 -9.6778,11.47468 -13.2078,18.49085 -2.8609,5.68611 -4.181,9.73256 -6.027,18.46811 -1.1794,5.57862 -1.1974,19.79799 -0.033,25.08692 0.4753,2.15985 0.9906,4.50927 1.142,5.22193 0.1541,0.71264 0.5596,2.02361 0.9048,2.91325 0.2367,0.60846 0.4663,1.39763 0.653,2.12377 a 69.78207,69.78207 0 0 0 2.1236,5.69135 c 0.08,0.17607 0.1487,0.33539 0.2312,0.51352 a 69.78207,69.78207 0 0 0 63.1469,40.55216 c 0.157,-0.002 0.2996,-3e-5 0.4581,-0.003 a 69.78207,69.78207 0 0 0 68.6065,-58.85384 c 0.487,-5.77764 0.598,-15.86396 0.2148,-20.82232 a 69.78207,69.78207 0 0 0 0,-0.0326 69.78207,69.78207 0 0 0 -58.2296,-58.92781 c -2.9882,-0.27356 -6.7486,-0.42667 -10.5987,-0.43102 z m -4.926,28.89917 c 4.1795,-0.13304 8.2752,2.02724 10.2645,6.30018 1.8005,3.8641 1.7741,6.41533 -0.1014,10.18071 -1.0794,2.16628 -2.2198,3.45065 -3.98,4.48227 v 0 c -2.7629,1.61918 -6.7833,2.2582 -9.2562,1.47083 -2.6159,-0.83282 -5.5544,-3.38637 -6.8761,-5.97726 -1.8323,-3.59134 -1.3816,-8.95525 0.9987,-11.89623 2.4002,-2.96582 5.7023,-4.457 8.953,-4.5605 z m 34.979,10.76111 c 6.0264,0 10.4936,4.30872 10.4936,10.12095 0,4.94402 -2.3928,8.46399 -6.7781,9.97161 l -2.2279,0.76531 3.4839,0.42531 c 4.3636,0.53239 7.0546,1.87195 9.7469,4.85211 2.743,3.0362 3.3457,5.41041 3.3457,13.25754 v 6.47229 l -3.7327,1.22619 v 0 c -2.0531,0.67402 -5.4293,1.39916 -7.5038,1.61167 l -3.7723,0.38549 -0.2449,-4.00571 c -0.3839,-6.31259 -3.3104,-10.90337 -8.7056,-13.65584 -2.1458,-1.09466 -2.2892,-1.30034 -1.5121,-2.18777 1.4034,-1.60278 2.7466,-4.60864 2.7466,-6.14656 0,-1.04877 0.4317,-1.58144 1.5977,-1.97015 l 1.5987,-0.532 -1.5987,-0.40115 c -1.12,-0.28114 -1.5977,-0.77468 -1.5977,-1.6501 0,-1.73208 -2.5778,-5.96281 -4.4763,-7.34569 -1.5132,-1.1022 -1.5479,-1.24332 -0.865,-3.52204 1.4601,-4.87358 5.106,-7.67146 9.9971,-7.67146 z m -51.7415,10.30873 c 1.3276,0.0502 2.6197,0.35695 3.7752,0.95448 2.7529,1.42353 5.2675,4.66606 5.7271,7.38554 0.3575,2.11491 0.2201,2.62964 -1.0743,3.9801 -0.8168,0.85305 -2.0433,2.81064 -2.724,4.34997 -0.7591,1.717 -1.8176,3.06361 -2.7395,3.48364 l -1.5021,0.68423 1.3541,0.32006 c 0.9788,0.23109 1.5895,1.04326 2.2005,2.92604 0.4652,1.43321 1.4638,3.43444 2.2192,4.44811 l 1.374,1.84354 -3.1506,1.7781 c -5.2006,2.93501 -7.9021,7.66543 -7.9021,13.83651 v 3.13088 l -1.8933,-0.064 c -2.3829,-0.0803 -6.1002,-0.77479 -10.7797,-2.01424 l -3.6416,-0.96444 v -6.78099 c 0,-5.5572 0.2258,-7.25544 1.1991,-9.40404 2.2526,-4.97584 5.9411,-7.68343 11.4897,-8.43675 l 3.0882,-0.41965 -2.3857,-1.18065 c -3.5702,-1.76636 -5.4231,-4.54318 -5.714,-8.56478 -0.1873,-2.58628 0.036,-3.88091 0.9857,-5.74398 1.8063,-3.54075 6.0985,-5.69835 10.0812,-5.54768 z m 33.8964,0.008 c 4.3734,-0.45431 8.5781,2.02756 10.5365,6.7141 2.0135,4.81908 0.099,10.19211 -4.5352,12.72413 l -2.7397,1.49787 3.5336,0.6572 c 8.9019,1.65547 12.5324,7.37139 12.1137,19.07123 l -0.1872,5.24328 -3.9572,1.32291 c -2.1769,0.72737 -5.4795,1.48135 -7.3387,1.67568 l -3.3796,0.35278 -0.3584,-3.83644 c -0.5735,-6.13898 -3.5475,-10.93223 -8.2718,-13.33152 -1.282,-0.65095 -2.4014,-1.24546 -2.4896,-1.32006 -0.088,-0.0746 0.6332,-1.64098 1.6018,-3.48224 0.9687,-1.84126 1.7611,-3.85502 1.7611,-4.47371 0,-0.62315 0.5663,-1.33334 1.2688,-1.59319 l 1.2676,-0.46942 -1.2277,-0.32148 c -0.8426,-0.22035 -1.4356,-1.08959 -1.8878,-2.76958 -0.3708,-1.37711 -1.6629,-3.53628 -2.9531,-4.93601 -1.2616,-1.36874 -2.2943,-3.07917 -2.2943,-3.80086 0,-2.30692 2.4823,-5.88134 5.1849,-7.4652 1.4184,-0.83124 2.895,-1.30804 4.3528,-1.45947 z m -16.8481,2.50072 h 7.8366 l -1.1235,2.47655 c -0.6183,1.36192 -1.1368,2.96254 -1.1368,3.55761 0,0.82424 -0.2559,0.96782 -1.0327,0.60031 -0.5611,-0.26542 -2.331,-0.48277 -3.9333,-0.48365 -1.6023,-9e-4 -3.6233,0.21308 -4.492,0.47652 -1.5066,0.45694 -1.6114,0.35597 -2.2576,-2.20911 -0.3724,-1.47909 -0.9068,-2.83201 -1.1877,-3.00569 -1.675,-1.03512 0.2827,-1.41254 7.327,-1.41254 z m 0.1186,8.25183 c 0.4681,-0.0166 0.9432,-0.004 1.4268,0.0427 10.4714,1.00618 12.7127,15.8873 3.0171,20.03569 -5.5107,2.35796 -11.7596,-0.32764 -13.9189,-5.98155 -2.5723,-6.7355 2.4586,-13.84689 9.475,-14.09681 z m -3.9361,21.55489 c 1.4698,-0.0634 3.2183,-0.053 5.3573,0.004 6.974,0.18672 7.4628,0.28013 10.175,1.95876 1.7601,1.08937 3.5224,2.85303 4.6116,4.61312 1.6855,2.72313 1.7716,3.1789 1.9561,10.32296 l 0.1926,7.47515 -1.6488,0.62874 c -0.9067,0.34596 -3.0731,1.00068 -4.8136,1.4552 -6.8911,1.79945 -16.496,1.49241 -25.3857,-0.81224 l -4.0781,-1.05832 0.028,-7.24045 c 0.033,-8.30475 0.7495,-10.39267 4.8463,-14.09397 2.4493,-2.21283 4.3514,-3.063 8.7595,-3.25322 z" /></g></g></svg>
