<?xml version="1.0" encoding="UTF-8" standalone="no"?>
<!-- Created with Inkscape (http://www.inkscape.org/) -->

<svg
   width="1000.0001"
   height="1000.0001"
   viewBox="0 0 264.58335 264.58335"
   version="1.1"
   id="svg1"
   inkscape:version="1.3.2 (091e20e, 2023-11-25, custom)"
   sodipodi:docname="The Melodic Monk Academy 2.svg"
   inkscape:export-filename="The Melodic Monk Academy 2.png"
   inkscape:export-xdpi="96"
   inkscape:export-ydpi="96"
   xml:space="preserve"
   xmlns:inkscape="http://www.inkscape.org/namespaces/inkscape"
   xmlns:sodipodi="http://sodipodi.sourceforge.net/DTD/sodipodi-0.dtd"
   xmlns="http://www.w3.org/2000/svg"
   xmlns:svg="http://www.w3.org/2000/svg"><sodipodi:namedview
     id="namedview1"
     pagecolor="#ffffff"
     bordercolor="#999999"
     borderopacity="1"
     inkscape:showpageshadow="2"
     inkscape:pageopacity="0"
     inkscape:pagecheckerboard="true"
     inkscape:deskcolor="#d1d1d1"
     inkscape:document-units="px"
     inkscape:zoom="0.32"
     inkscape:cx="-248.4375"
     inkscape:cy="1223.4375"
     inkscape:window-width="1920"
     inkscape:window-height="1051"
     inkscape:window-x="-9"
     inkscape:window-y="-9"
     inkscape:window-maximized="1"
     inkscape:current-layer="layer1"
     showguides="true" /><defs
     id="defs1" /><g
     inkscape:label="Layer 1"
     inkscape:groupmode="layer"
     id="layer1"
     transform="translate(2538.8898,510.82146)"><g
       id="g10"
       transform="matrix(13.115797,0,0,13.087806,-4213.9265,-1866.7658)"
       inkscape:export-filename="..\..\Users\theme\OneDrive\Desktop\Market\Social\WhatsApp.png"
       inkscape:export-xdpi="96"
       inkscape:export-ydpi="96"
       style="fill:#a61212;fill-opacity:1"><g
         id="g9"
         style="fill:#a61212;fill-opacity:1"><path
           style="fill:#a61212;fill-opacity:1;stroke:none;stroke-width:0.0448222"
           d="m 133.20825,118.46843 c 0.6432,-0.0296 1.33615,-0.51187 1.97218,-0.45001 0.37068,0.0363 0.80008,0.39354 1.16538,0.51635 0.99864,0.33617 2.11561,0.40743 3.13756,0.12416 0.84983,-0.23532 1.64632,-0.6562 2.28593,-1.26798 0.52397,-0.50115 0.9202,-1.08828 1.22051,-1.74632 0.27431,-0.60173 0.43701,-1.31042 0.43791,-1.97217 0.002,-1.2357 -0.3411,-2.41457 -1.09814,-3.40649 -1.69563,-2.2209 -4.95465,-2.6965 -7.23879,-1.11943 -0.63289,0.4371 -1.15462,0.99545 -1.54861,1.6573 -0.74495,1.25264 -0.94171,2.81676 -0.52576,4.21328 0.0955,0.32057 0.20976,0.64477 0.36619,0.94127 0.0991,0.1883 0.29986,0.41084 0.31779,0.62751 0.0457,0.55754 -0.33975,1.34556 -0.49215,1.88253 m 2.46523,-7.86923 c 0.75839,-0.20749 0.92602,0.39264 1.15641,0.96663 0.0861,0.21475 0.25997,0.47785 0.2026,0.71716 -0.069,0.28726 -0.48453,0.51666 -0.47064,0.8068 0.017,0.34042 0.53877,0.8505 0.7705,1.07174 0.37874,0.36113 0.91303,0.78354 1.43386,0.90904 0.49708,0.11977 0.57955,-0.73289 1.03091,-0.75924 0.23218,-0.0135 0.51591,0.16875 0.71716,0.26871 0.2259,0.11214 0.65888,0.23558 0.79873,0.45458 0.36351,0.56996 -0.39982,1.2557 -0.84356,1.44651 -0.58044,0.24948 -1.23037,0.0606 -1.79288,-0.13474 -1.44776,-0.50277 -2.78436,-1.71472 -3.48448,-3.07731 -0.36575,-0.71196 -0.61228,-2.37074 0.48139,-2.66988"
           id="path8-3" /><path
           style="fill:#a61212;fill-opacity:1;stroke:none;stroke-width:0.0448222"
           d="m 137.15241,103.65127 c -2.24694,0.29516 -4.26259,0.93029 -6.00618,2.45904 -0.99595,0.87327 -1.81978,1.93802 -2.40919,3.12474 -2.79736,5.63074 0.38278,12.60759 6.44319,14.24674 1.23934,0.33527 2.58176,0.41729 3.85471,0.26266 4.73278,-0.57373 8.50054,-4.55887 8.82595,-9.31003 0.32541,-4.75568 -2.77584,-9.11823 -7.34681,-10.43053 -1.04436,-0.29986 -2.27563,-0.49529 -3.36167,-0.35262 m -5.46831,16.38595 c 0.0627,-0.7696 0.39488,-1.58671 0.60151,-2.33075 0.078,-0.28059 0.26983,-0.67552 0.24339,-0.96709 -0.0466,-0.51133 -0.48946,-1.11347 -0.62617,-1.6326 -0.33796,-1.28792 -0.21873,-2.70601 0.24876,-3.94436 0.31376,-0.83217 0.83415,-1.57084 1.45986,-2.19629 0.60421,-0.6042 1.31285,-1.07291 2.10665,-1.38949 3.13621,-1.25081 6.81836,0.18189 8.23339,3.27203 0.50739,1.10831 0.64455,2.33792 0.50918,3.54095 -0.0896,0.7943 -0.36261,1.59236 -0.75839,2.28593 -0.49304,0.86373 -1.19496,1.62795 -2.02283,2.18061 -1.42041,0.94709 -3.21554,1.27295 -4.88562,0.93678 -0.39667,-0.0798 -0.79111,-0.20573 -1.16538,-0.35858 -0.19901,-0.0816 -0.40653,-0.24383 -0.62751,-0.24607 -0.33572,-0.004 -0.70774,0.16763 -1.03091,0.24966 -0.76287,0.19318 -1.52844,0.38592 -2.28593,0.59927"
           id="path9-3" /></g></g></g></svg>
