<?xml version="1.0" encoding="UTF-8" standalone="no"?>
<!-- Created with Inkscape (http://www.inkscape.org/) -->

<svg
   width="1000.0001"
   height="1000.0001"
   viewBox="0 0 264.58335 264.58335"
   version="1.1"
   id="svg1"
   inkscape:version="1.3.2 (091e20e, 2023-11-25, custom)"
   sodipodi:docname="The Melodic Monk Academy 2.svg"
   inkscape:export-filename="The Melodic Monk Academy 2.png"
   inkscape:export-xdpi="96"
   inkscape:export-ydpi="96"
   xml:space="preserve"
   xmlns:inkscape="http://www.inkscape.org/namespaces/inkscape"
   xmlns:sodipodi="http://sodipodi.sourceforge.net/DTD/sodipodi-0.dtd"
   xmlns="http://www.w3.org/2000/svg"
   xmlns:svg="http://www.w3.org/2000/svg"><sodipodi:namedview
     id="namedview1"
     pagecolor="#ffffff"
     bordercolor="#999999"
     borderopacity="1"
     inkscape:showpageshadow="2"
     inkscape:pageopacity="0"
     inkscape:pagecheckerboard="true"
     inkscape:deskcolor="#d1d1d1"
     inkscape:document-units="px"
     inkscape:zoom="0.32"
     inkscape:cx="-248.4375"
     inkscape:cy="1223.4375"
     inkscape:window-width="1920"
     inkscape:window-height="1051"
     inkscape:window-x="-9"
     inkscape:window-y="-9"
     inkscape:window-maximized="1"
     inkscape:current-layer="layer1"
     showguides="true" /><defs
     id="defs1"><clipPath
       clipPathUnits="userSpaceOnUse"
       id="clipPath1721"><path
         style="opacity:0.678218;fill:#000000;stroke-width:7.14716;stroke-linecap:square;paint-order:markers stroke fill"
         id="path1723"
         sodipodi:type="arc"
         sodipodi:cx="118.6974"
         sodipodi:cy="274.37021"
         sodipodi:rx="5.2602916"
         sodipodi:ry="5.2602844"
         sodipodi:start="0"
         sodipodi:end="6.2831815"
         sodipodi:arc-type="slice"
         d="m 123.95769,274.37021 a 5.2602916,5.2602844 0 0 1 -5.26029,5.26028 5.2602916,5.2602844 0 0 1 -5.26029,-5.26027 5.2602916,5.2602844 0 0 1 5.26028,-5.2603 5.2602916,5.2602844 0 0 1 5.2603,5.26027 l -5.26029,2e-5 z" /></clipPath></defs><g
     inkscape:label="Layer 1"
     inkscape:groupmode="layer"
     id="layer1"
     transform="translate(2460.6986,-1440.6471)"><path
       style="fill:#a61212;fill-opacity:1;stroke:none;stroke-width:0.00487065"
       d="m 109.34817,269.10993 v 10.52057 h 18.69847 v -10.52057 h -18.69847 m 9.77542,4.57839 c 0.0225,-0.065 0.0983,-0.12376 0.14256,-0.17534 0.11627,-0.13565 0.23725,-0.26742 0.3521,-0.40426 0.3578,-0.42623 0.7269,-0.84602 1.09722,-1.2615 0.1016,-0.11397 0.20101,-0.23017 0.30076,-0.34581 0.0407,-0.0472 0.0894,-0.13034 0.14412,-0.1606 0.0352,-0.0195 0.11037,-0.005 0.15016,-0.005 h 0.37017 c -0.0541,0.0936 -0.14602,0.17794 -0.21835,0.25814 -0.11231,0.12457 -0.22005,0.25378 -0.33062,0.37991 -0.39403,0.44939 -0.78865,0.89915 -1.17655,1.35404 -0.14656,0.17189 -0.29906,0.33879 -0.44479,0.51141 -0.0375,0.0444 -0.0772,0.0869 -0.11441,0.13151 -0.0118,0.0142 -0.0376,0.0347 -0.0404,0.0536 -0.003,0.0194 0.0257,0.048 0.0359,0.0633 0.0361,0.0542 0.073,0.10798 0.1113,0.16073 0.14855,0.20466 0.2882,0.41624 0.43324,0.62344 0.41274,0.58964 0.81535,1.18668 1.23282,1.77291 0.13053,0.18328 0.26267,0.36729 0.38634,0.55525 0.0425,0.0646 0.12722,0.14412 0.145,0.21918 h -1.24202 -0.3653 c -0.0462,0 -0.11738,0.0135 -0.16063,-0.003 -0.0469,-0.0178 -0.0918,-0.11714 -0.11943,-0.15781 -0.0936,-0.13735 -0.19045,-0.27256 -0.28503,-0.40913 -0.27028,-0.39024 -0.54401,-0.77809 -0.81345,-1.16896 -0.0808,-0.11718 -0.16273,-0.23349 -0.24354,-0.35068 -0.037,-0.0538 -0.0859,-0.1054 -0.11188,-0.1656 h -0.01 c -0.0451,0.0905 -0.14168,0.17208 -0.20807,0.2484 -0.15557,0.17885 -0.31109,0.35775 -0.46754,0.53577 -0.29399,0.33451 -0.58331,0.67322 -0.87676,1.00822 -0.0864,0.0987 -0.17281,0.1975 -0.2582,0.29711 -0.0426,0.0497 -0.0864,0.11894 -0.13978,0.15713 -0.0301,0.0215 -0.0985,0.008 -0.13429,0.008 h -0.25814 c -0.0419,0 -0.0912,0.007 -0.13151,-0.005 0.067,-0.10136 0.16185,-0.19176 0.2427,-0.2825 0.12401,-0.1391 0.24368,-0.2822 0.36735,-0.4217 0.35302,-0.39802 0.69553,-0.8054 1.04675,-1.20509 0.14481,-0.16482 0.2881,-0.33096 0.43227,-0.49637 0.0382,-0.0439 0.0766,-0.0877 0.11456,-0.13194 0.011,-0.0128 0.0355,-0.0304 0.0359,-0.0487 5.3e-4,-0.0207 -0.03,-0.0517 -0.0416,-0.0682 -0.0386,-0.055 -0.077,-0.11022 -0.11505,-0.1656 -0.15011,-0.21835 -0.3011,-0.43641 -0.45414,-0.65266 -0.4293,-0.60682 -0.85153,-1.21931 -1.27343,-1.83136 -0.11996,-0.1741 -0.23934,-0.34915 -0.36233,-0.52116 -0.0516,-0.0722 -0.14612,-0.16719 -0.16843,-0.25327 h 1.30047 0.34582 c 0.035,0 0.10131,-0.0126 0.13107,0.008 0.0489,0.0336 0.0862,0.11871 0.11982,0.16754 0.0829,0.12059 0.16759,0.24009 0.25088,0.36043 0.28947,0.41796 0.584,0.83249 0.87166,1.25175 0.0918,0.1338 0.18586,0.26601 0.27831,0.39939 0.0333,0.0481 0.0734,0.1387 0.12605,0.1656 m -2.66912,-1.95799 0.0844,0.13151 0.19604,0.28249 0.56013,0.80366 1.78865,2.57169 0.72938,1.04719 0.21635,0.31172 0.0998,0.13764 0.0659,0.008 h 0.15586 0.59423 l -0.0877,-0.13638 -0.22054,-0.31659 -0.68822,-0.98874 -1.93848,-2.786 -0.53095,-0.76469 -0.14612,-0.20944 -0.0669,-0.0875 -0.0666,-0.005 h -0.15586 z"
       id="path16-7"
       clip-path="url(#clipPath1721)"
       transform="matrix(25.149113,0,0,25.14916,-5313.5415,-5327.2416)"
       inkscape:export-filename="..\..\Users\theme\OneDrive\Desktop\Market\Social\X.png"
       inkscape:export-xdpi="96"
       inkscape:export-ydpi="96" /></g></svg>
