<?xml version="1.0" encoding="UTF-8" standalone="no"?>
<!-- Created with Inkscape (http://www.inkscape.org/) -->

<svg
   width="1000.0001"
   height="1000.0001"
   viewBox="0 0 264.58335 264.58335"
   version="1.1"
   id="svg1"
   inkscape:version="1.3.2 (091e20e, 2023-11-25, custom)"
   sodipodi:docname="The Melodic Monk Academy 2.svg"
   inkscape:export-filename="The Melodic Monk Academy 2.png"
   inkscape:export-xdpi="96"
   inkscape:export-ydpi="96"
   xml:space="preserve"
   xmlns:inkscape="http://www.inkscape.org/namespaces/inkscape"
   xmlns:sodipodi="http://sodipodi.sourceforge.net/DTD/sodipodi-0.dtd"
   xmlns="http://www.w3.org/2000/svg"
   xmlns:svg="http://www.w3.org/2000/svg"><sodipodi:namedview
     id="namedview1"
     pagecolor="#ffffff"
     bordercolor="#999999"
     borderopacity="1"
     inkscape:showpageshadow="2"
     inkscape:pageopacity="0"
     inkscape:pagecheckerboard="true"
     inkscape:deskcolor="#d1d1d1"
     inkscape:document-units="px"
     inkscape:zoom="0.32"
     inkscape:cx="-248.4375"
     inkscape:cy="1223.4375"
     inkscape:window-width="1920"
     inkscape:window-height="1051"
     inkscape:window-x="-9"
     inkscape:window-y="-9"
     inkscape:window-maximized="1"
     inkscape:current-layer="layer1"
     showguides="true" /><defs
     id="defs1" /><g
     inkscape:label="Layer 1"
     inkscape:groupmode="layer"
     id="layer1"
     transform="translate(2526.3185,-523.57561)"><g
       id="g15"
       transform="matrix(13.136037,0,0,13.099337,-3763.9966,-1219.2249)"
       inkscape:export-filename="..\..\Users\theme\OneDrive\Desktop\Market\Social\Youtube.png"
       inkscape:export-xdpi="96"
       inkscape:export-ydpi="96"
       style="fill:#a61212;fill-opacity:1"><path
         style="fill:#a61212;fill-opacity:1;stroke:none;stroke-width:0.0448222"
         d="m 102.95336,141.19338 v 3.94436 c 1.23082,-0.36217 2.27159,-1.41908 3.45132,-1.92736 v -0.0896 l -2.28594,-1.30881 -1.16538,-0.61855"
         id="path14-4" /><path
         style="fill:#a61212;fill-opacity:1;stroke:none;stroke-width:0.0448222"
         d="m 103.49092,133.09921 c -1.84443,0.24249 -3.530653,0.74136 -5.064913,1.83816 -1.06049,0.75795 -1.95335,1.70952 -2.65841,2.80453 -2.535589,3.93898 -1.898217,9.43866 1.49303,12.6829 2.27249,2.17387 5.418113,3.14069 8.516223,2.72339 1.40204,-0.18915 2.81081,-0.71491 3.98918,-1.49661 1.17434,-0.77856 2.19943,-1.74224 2.97172,-2.92824 2.87758,-4.41857 1.83995,-10.48257 -2.38903,-13.65374 -0.96771,-0.72612 -2.06406,-1.27295 -3.2272,-1.60464 -1.13893,-0.32496 -2.4464,-0.52128 -3.6306,-0.36575 m -1.29983,5.37291 c 1.8776,-0.22187 3.8574,0.0533 5.73724,0.0767 0.80053,0.01 1.88209,0.0224 2.45043,0.67413 0.49574,0.56789 0.48184,1.35497 0.56566,2.06003 0.14746,1.24874 0.11564,2.56069 -0.005,3.80988 -0.12192,1.25906 -0.34961,2.3702 -1.80051,2.58042 -0.96726,0.14029 -1.94035,0.11295 -2.91344,0.15553 -1.70056,0.0744 -3.45893,0.12237 -5.15456,-0.039 -0.86417,-0.0825 -1.904503,0.0556 -2.644063,-0.49753 -0.57283,-0.4285 -0.64723,-1.14073 -0.73643,-1.79603 -0.19632,-1.44238 -0.10802,-2.90268 -0.0278,-4.34775 0.0394,-0.70416 0.11833,-1.54861 0.67592,-2.04838 0.9444,-0.84579 2.691573,-0.49125 3.852923,-0.62796"
         id="path15-7" /></g></g></svg>
