<?xml version="1.0" encoding="UTF-8" standalone="no"?>
<!-- Created with Inkscape (http://www.inkscape.org/) -->

<svg
   width="1000.0001"
   height="1000.0001"
   viewBox="0 0 264.58335 264.58335"
   version="1.1"
   id="svg1"
   inkscape:version="1.3.2 (091e20e, 2023-11-25, custom)"
   sodipodi:docname="The Melodic Monk Academy 2.svg"
   inkscape:export-filename="The Melodic Monk Academy 2.png"
   inkscape:export-xdpi="96"
   inkscape:export-ydpi="96"
   xml:space="preserve"
   xmlns:inkscape="http://www.inkscape.org/namespaces/inkscape"
   xmlns:sodipodi="http://sodipodi.sourceforge.net/DTD/sodipodi-0.dtd"
   xmlns="http://www.w3.org/2000/svg"
   xmlns:svg="http://www.w3.org/2000/svg"><sodipodi:namedview
     id="namedview1"
     pagecolor="#ffffff"
     bordercolor="#999999"
     borderopacity="1"
     inkscape:showpageshadow="2"
     inkscape:pageopacity="0"
     inkscape:pagecheckerboard="true"
     inkscape:deskcolor="#d1d1d1"
     inkscape:document-units="px"
     inkscape:zoom="0.44863269"
     inkscape:cx="-3503.98"
     inkscape:cy="2332.6432"
     inkscape:window-width="1920"
     inkscape:window-height="1051"
     inkscape:window-x="-9"
     inkscape:window-y="-9"
     inkscape:window-maximized="1"
     inkscape:current-layer="layer1"
     showguides="true" /><defs
     id="defs1" /><g
     inkscape:label="Layer 1"
     inkscape:groupmode="layer"
     id="layer1"
     transform="translate(1051.2554,-1235.0207)"><g
       id="g69"
       transform="translate(-1618.0364,330.2796)"
       inkscape:export-filename="..\Projects\The Melodic Monk Website\themelodicmonk-website\favicon\favicon.png"
       inkscape:export-xdpi="6.1439996"
       inkscape:export-ydpi="6.1439996"><g
         id="g68"
         transform="translate(98.110123,455.30764)"><g
           id="g67"
           inkscape:export-filename="..\Projects\The Melodic Monk Website\themelodicmonk-website\favicon\favicon.webp"
           inkscape:export-xdpi="6.1440001"
           inkscape:export-ydpi="6.1440001"><path
             style="fill:#a61212;fill-opacity:1;stroke:none;stroke-width:1.75119;paint-order:markers fill stroke"
             id="path67"
             sodipodi:type="arc"
             sodipodi:cx="600.96252"
             sodipodi:cy="581.72516"
             sodipodi:rx="132.29167"
             sodipodi:ry="132.29167"
             sodipodi:start="0"
             sodipodi:end="6.2829791"
             sodipodi:open="true"
             sodipodi:arc-type="arc"
             d="M 733.2542,581.72516 A 132.29167,132.29167 0 0 1 600.96934,714.01683 132.29167,132.29167 0 0 1 468.67085,581.7388 132.29167,132.29167 0 0 1 600.94206,449.43349 132.29167,132.29167 0 0 1 733.25419,581.69788" /></g></g><g
         id="g7"
         transform="matrix(0.38227517,0,0,0.38227517,601.2102,939.1705)"
         style="fill:#ffffff">
	<path
   class="st0"
   d="m 277.466,220.094 c -7.37,-0.72 -14.253,-0.769 -20.695,-0.295 -2.576,-10.568 -5.28,-21.382 -8.069,-32.507 -2.949,-11.779 -5.534,-22.74 -7.783,-33.006 33.218,-33.292 54.707,-62.83 59.104,-88.646 5.362,-31.428 -6.904,-66.96 -41.129,-65.603 -34.221,1.374 -65.66,35.525 -54.756,105.242 2.36,15.084 5.374,29.808 8.818,44.433 -7.975,6.11 -16.748,12.286 -26.352,18.454 -102.404,65.587 -81.836,166.732 -54.482,200.899 21.591,27.002 79.141,50.56 131.002,33.685 -3.084,36.515 -14.209,64.277 -30.123,75.672 -23.644,16.924 -37.063,4.098 -36.621,-6.838 0.434,-10.945 -0.176,-30.078 -13.677,-34.184 -13.518,-4.09 -28.434,-6.822 -41.321,8.222 -12.912,15.018 -7.064,39.631 4.851,49.185 26.781,21.505 73.979,28.728 116.735,-13.644 19.423,-19.255 26.278,-49.39 24.675,-89.914 5.108,-3.231 10.094,-6.969 14.9,-11.247 58.104,-51.933 44.366,-153.087 -25.077,-159.908 z M 253.441,34.213 C 287.768,35.85 289.85,79.089 236.01,130.115 223.192,60.749 230.333,33.101 253.441,34.213 Z M 161.855,343.095 C 129.643,293.893 147.749,237.91 196.44,195.489 c 8,-6.978 15.636,-13.808 22.879,-20.499 4.344,16.277 9.059,32.67 13.84,49.538 -37.071,12.908 -52.09,47.803 -49.002,73.464 4.098,34.184 28.494,39.664 42.163,39.664 13.673,0 19.718,-15.051 2.18,-20.523 -15.3,-4.769 -18.675,-47.894 12.568,-64.335 5.636,20.662 11.162,42.355 16.078,65.701 3.39,16.139 5.44,31.812 6.315,46.675 -35.242,16.341 -77.54,14.705 -101.606,-22.079 z m 122.278,9.824 C 279.977,322.04 272.64,286.62 263.266,246.842 c 44.335,-1.816 67.922,62.233 32.544,96.253 -3.649,3.509 -7.571,6.797 -11.677,9.824 z"
   id="path1-9"
   style="fill:#ffffff" />
	<path
   class="st0"
   d="M 306.951,421.99 H 502.234 V 407.061 H 307.699 c -0.098,5.17 -0.344,10.136 -0.748,14.929 z"
   id="path2-3"
   style="fill:#ffffff" />
	<path
   class="st0"
   d="m 161.777,414.383 c -5.002,-2.209 -9.8,-4.679 -14.372,-7.322 H 39.615 v -63.435 h 57.726 c -1.505,-4.761 -2.83,-9.734 -3.927,-14.92 H 39.615 v -63.419 h 53.333 c 0.941,-4.753 2.135,-9.726 3.706,-14.92 H 39.615 v -63.435 h 93.639 c 4.577,-5.022 9.628,-10.012 15.206,-14.904 H 39.615 v -63.436 h 144.898 c -0.012,-0.074 -0.024,-0.155 -0.041,-0.237 -0.802,-5.12 -1.329,-9.971 -1.73,-14.682 H 9.766 v 7.451 7.468 63.436 14.904 63.435 14.92 63.419 14.92 63.435 7.452 7.477 h 128.588 c 7.023,-4.531 14.851,-7.1 23.423,-7.607 z"
   id="path3-4"
   style="fill:#ffffff" />
	<path
   class="st0"
   d="m 350.66,343.627 h 151.574 v -14.92 H 355.249 c -1.236,5.046 -2.749,10.036 -4.589,14.92 z"
   id="path4-4"
   style="fill:#ffffff" />
	<path
   class="st0"
   d="m 353.195,261.762 c 0.38,1.161 0.654,2.356 0.998,3.526 h 148.041 v -14.92 H 348.672 c 1.697,3.639 3.227,7.435 4.523,11.394 z"
   id="path5-8"
   style="fill:#ffffff" />
	<path
   class="st0"
   d="m 311.805,93.673 c -2.2,4.85 -4.834,9.824 -7.885,14.92 h 198.314 v -14.92 z"
   id="path6-1"
   style="fill:#ffffff" />
	<path
   class="st0"
   d="m 268.006,182.449 c 0.38,1.522 0.744,2.986 1.121,4.483 H 502.234 V 172.028 H 265.437 c 0.826,3.411 1.681,6.904 2.569,10.421 z"
   id="path7-4"
   style="fill:#ffffff" />
</g></g></g></svg>
