<?xml version="1.0" encoding="UTF-8" standalone="no"?>
<!-- Created with Inkscape (http://www.inkscape.org/) -->

<svg
   width="1000.0001"
   height="1000.0001"
   viewBox="0 0 264.58335 264.58335"
   version="1.1"
   id="svg1"
   inkscape:version="1.3.2 (091e20e, 2023-11-25, custom)"
   sodipodi:docname="The Melodic Monk Academy 2.svg"
   inkscape:export-filename="The Melodic Monk Academy 2.png"
   inkscape:export-xdpi="96"
   inkscape:export-ydpi="96"
   xml:space="preserve"
   xmlns:inkscape="http://www.inkscape.org/namespaces/inkscape"
   xmlns:sodipodi="http://sodipodi.sourceforge.net/DTD/sodipodi-0.dtd"
   xmlns="http://www.w3.org/2000/svg"
   xmlns:svg="http://www.w3.org/2000/svg"><sodipodi:namedview
     id="namedview1"
     pagecolor="#ffffff"
     bordercolor="#999999"
     borderopacity="1"
     inkscape:showpageshadow="2"
     inkscape:pageopacity="0"
     inkscape:pagecheckerboard="true"
     inkscape:deskcolor="#d1d1d1"
     inkscape:document-units="px"
     inkscape:zoom="0.079307804"
     inkscape:cx="-2919.0065"
     inkscape:cy="2692.0428"
     inkscape:window-width="1920"
     inkscape:window-height="1051"
     inkscape:window-x="-9"
     inkscape:window-y="-9"
     inkscape:window-maximized="1"
     inkscape:current-layer="layer1"
     showguides="true" /><defs
     id="defs1" /><g
     inkscape:label="Layer 1"
     inkscape:groupmode="layer"
     id="layer1"
     transform="translate(1369.2737,-551.63173)"><g
       id="g24"><path
         style="fill:#a61212;fill-opacity:1;stroke:none;stroke-width:1.75119;paint-order:markers fill stroke"
         id="path18"
         sodipodi:type="arc"
         sodipodi:cx="-1236.9821"
         sodipodi:cy="683.9234"
         sodipodi:rx="132.29167"
         sodipodi:ry="132.29167"
         sodipodi:start="0"
         sodipodi:end="6.2829791"
         sodipodi:open="true"
         sodipodi:arc-type="arc"
         d="m -1104.6904,683.9234 a 132.29167,132.29167 0 0 1 -132.2848,132.29167 132.29167,132.29167 0 0 1 -132.2985,-132.27803 132.29167,132.29167 0 0 1 132.2712,-132.30531 132.29167,132.29167 0 0 1 132.3121,132.26439" /><g
         id="g23"><path
           style="font-size:62.3571px;font-family:Forte;-inkscape-font-specification:'Forte, Normal';text-align:center;text-anchor:middle;fill:#ffffff;stroke-width:1.99124;paint-order:markers fill stroke"
           d="m -1278.4943,749.18272 0.5589,-1.77359 q 6.595,-21.00709 9.5572,-27.31316 0.475,-0.86709 0.8104,-1.34004 0.3353,-0.51238 0.7545,-0.90649 0.4471,-0.39414 1.1457,-0.78827 2.0121,-1.2218 5.1978,-1.2218 1.6488,0 2.0679,0.39413 0.4471,0.39412 0.4471,1.77359 0,1.06414 -0.056,2.28594 -0.2236,7.09432 -0.2236,10.08972 0,7.56728 0.7266,14.34631 0.475,3.78364 1.3972,7.68552 0.9781,3.46834 1.8723,5.32074 1.0619,2.04948 1.7885,2.99539 0.8943,1.26121 0.8943,1.93123 0,1.2218 -1.4811,3.31068 -2.4871,3.38952 -4.9742,3.38952 -3.4932,0 -6.3436,-4.21719 -1.4531,-2.04947 -2.3194,-4.53249 -0.8383,-2.52243 -1.2575,-6.18782 -0.4192,-3.70483 -0.5589,-9.38028 -0.1956,-6.14843 -0.2236,-6.93668 h -0.1118 q -1.7605,4.76896 -2.9342,7.96141 -1.1737,3.19246 -1.9282,5.28134 -0.7266,2.08888 -1.7326,5.00544 -3.1857,9.30145 -4.1638,11.23268 -0.056,0.0788 -0.2235,0.35472 -0.1677,0.27589 -0.3074,0.43354 -0.4751,0.63061 -1.0899,0.98533 -0.5868,0.31531 -1.006,0.31531 -1.1737,0 -2.5989,-2.04948 -1.3972,-2.08888 -2.4592,-5.36016 -1.0898,-3.46834 -1.7884,-7.05492 -0.6707,-3.62598 -1.2017,-8.5526 -0.503,-4.96603 -0.8942,-12.09978 h -0.1118 q -0.8383,2.60126 -1.2575,3.90189 -0.4192,1.30062 -1.2855,4.02011 -0.8663,2.7195 -1.006,3.15304 -1.1457,3.58658 -2.4033,7.25198 -1.2575,3.66541 -2.04,5.63605 -0.7545,1.97065 -1.6767,3.90188 -0.4191,0.9065 -1.481,2.56184 -1.6488,2.20713 -3.6049,3.46835 -1.9562,1.2218 -3.7167,1.2218 -0.6707,0 -1.1737,-0.47297 -0.503,-0.47295 -0.503,-1.2218 0,-0.67001 0.7545,-1.77358 0.4192,-0.70943 1.8164,-3.62599 l 1.6208,-3.54716 q 1.509,-3.15303 4.555,-11.31152 l 1.3414,-3.54716 q 4.6948,-12.69096 6.3435,-17.34168 1.6488,-4.69015 1.6488,-5.43899 0,-0.82768 -0.8384,-1.85242 -0.6427,-0.74884 -0.6427,-1.30063 0,-0.86708 1.6208,-1.61593 1.6208,-0.78825 3.5211,-0.78825 3.8284,0 5.4493,2.40418 1.006,1.4977 1.8723,5.91194 0.8663,4.37484 1.7326,12.73039 0.056,0.47296 0.084,0.74884 0.028,0.23648 0.056,0.43355 0.028,0.19706 0.028,0.51236 0.1677,1.10357 0.1677,1.45828 0.5869,5.08428 0.8943,6.58196 0.3073,1.45828 0.8942,2.56185 z m 47.7859,-19.07587 q 4.1638,0 4.1638,1.37946 0,1.57652 -1.8723,1.69475 -2.2635,0.19707 -4.2197,1.813 -1.9561,1.61593 -3.4931,4.41424 -1.509,2.79833 -2.3753,6.30607 -0.8384,3.50776 -0.8384,7.40964 0,4.29601 1.4252,6.93667 1.4252,2.60126 3.7167,2.60126 2.1238,0 3.7167,-3.07421 1.5928,-3.07421 1.5928,-7.17315 0,-3.3501 -1.006,-6.26666 -0.9781,-2.95598 -2.8783,-4.96603 -0.8104,-0.90649 -0.8104,-1.30063 0,-0.55178 1.1457,-1.69476 1.2855,-1.2218 2.8784,-2.04946 1.5928,-0.82768 2.6827,-0.82768 1.2575,0 2.3753,0.94591 1.1458,0.9065 2.012,2.64066 0.8663,1.69477 1.3135,3.9413 0.475,2.20713 0.475,4.72955 0,4.17778 -1.1178,8.27672 -1.1178,4.05953 -2.9342,6.58196 -2.3474,3.19244 -5.6728,5.24192 -3.2975,2.01007 -6.2877,2.01007 -2.9062,0 -5.7846,-1.41887 -2.8504,-1.41886 -4.5271,-3.74423 -2.2356,-3.15304 -2.2356,-8.94674 0,-4.5719 1.5929,-9.14381 1.5929,-4.57189 4.3035,-8.27671 2.7386,-3.74423 6.0082,-5.87253 3.2975,-2.16771 6.6509,-2.16771 z m 24.3681,18.83938 1.6767,-2.75889 q 2.543,-3.98071 4.024,-5.91194 1.5091,-1.97065 2.6828,-2.83775 1.2016,-0.86708 2.4312,-0.86708 1.9841,0 2.7945,1.4977 0.8104,1.49769 0.8104,5.20251 0,1.53709 -0.2236,4.53249 -0.3353,3.98069 -0.3353,7.48845 0,3.94129 0.2794,6.38489 0.1956,1.4977 0.5869,2.99539 0.2794,1.41887 0.2794,1.93123 0,0.63061 -0.3353,0.98532 -0.8663,1.06415 -2.2915,1.85241 -1.4252,0.78827 -2.4033,0.78827 -1.5928,0 -2.9063,-1.53711 -1.2854,-1.5371 -2.012,-4.2566 -0.6986,-2.71949 -0.6986,-6.14842 0,-2.28595 0.3353,-5.39957 l -0.1118,-0.15765 q -1.2016,1.89182 -1.9561,2.99539 -0.7266,1.10355 -1.3693,2.08888 -3.1299,5.04486 -5.3096,9.10438 -0.8383,1.57652 -1.5369,2.75892 -1.034,1.45828 -2.3474,1.45828 -1.7885,0 -2.9063,-1.89183 -1.1178,-1.89182 -1.1178,-4.88721 0,-1.8524 0.3074,-4.53248 0.3074,-2.68008 0.8104,-5.71487 0.531,-3.07421 1.2296,-6.30607 0.7265,-3.23186 1.5649,-6.14843 1.2855,-4.84779 3.1298,-7.56728 1.2576,-1.77358 3.046,-1.77358 2.9063,0 2.9063,5.32074 0,3.90189 -1.1457,11.15386 z m 43.7898,27.82554 q -3.9123,7.09433 -5.9523,7.09433 -1.4811,0 -3.1299,-1.65534 -1.6208,-1.61593 -3.046,-4.41425 -1.4252,-2.75891 -2.2635,-5.99077 -0.8384,-3.23186 -0.8384,-6.14842 0,-1.65535 0.3913,-2.20713 0.1677,-0.23647 0.7545,-0.78825 4.6948,-4.09894 4.6948,-7.76435 0,-1.93123 -1.2017,-1.93123 -1.2855,0 -3.3254,3.50774 -2.0121,3.46835 -3.6608,8.5132 -0.9781,3.19245 -1.6767,4.05953 -0.6428,0.78827 -1.9841,0.78827 -1.4811,0 -2.571,-1.14298 -1.0898,-1.18239 -1.7046,-3.31068 -0.5869,-2.16772 -0.5869,-4.92663 0,-4.25659 0.7546,-9.30145 0.7545,-5.04486 2.0958,-10.12913 1.3693,-5.08426 3.2417,-9.93205 1.8723,-4.84779 3.9123,-8.55262 4.024,-7.17315 7.8525,-7.17315 1.9003,0 3.3813,1.22181 1.5091,1.2218 2.3195,3.46833 0.8104,2.24654 0.8104,5.24192 0,3.66541 -1.2855,7.33081 -1.2855,3.62599 -3.3534,5.95135 -2.04,2.28595 -4.1079,2.28595 -0.9781,0 -0.9781,-0.98532 0,-0.39413 0.503,-1.85241 2.4592,-6.85785 2.4592,-15.56811 0,-2.24654 -0.3912,-2.24654 -0.2795,0 -0.8663,1.14298 -0.5589,1.14298 -1.0899,2.79831 -3.0739,9.735 -4.4432,22.42596 -0.084,0.67003 -0.1957,1.7736 -0.084,1.10355 -0.2235,2.52243 l 0.1118,0.15765 q 1.1457,-2.28596 1.8723,-3.38951 0.7545,-1.14298 1.9841,-2.44361 3.7725,-4.17778 7.0421,-4.17778 1.6767,0 2.7386,1.37946 1.0899,1.37945 1.0899,3.54716 0,5.32075 -2.4033,10.9568 -0.6707,1.65535 -1.5649,3.27128 -0.8663,1.61593 -2.5151,4.17776 1.0061,2.40419 2.2915,4.84779 1.1458,2.12831 2.8784,4.25661 1.509,1.77358 2.1797,3.31068 z"
           id="text20"
           inkscape:label="Monk"
           aria-label="Monk" /><path
           style="font-size:62.3571px;font-family:Forte;-inkscape-font-specification:'Forte, Normal';text-align:center;text-anchor:middle;fill:#ffffff;stroke-width:1.99124;paint-order:markers fill stroke"
           d="m -1309.4574,684.67223 0.5589,-1.77358 q 6.595,-21.00709 9.5572,-27.31316 0.4751,-0.86709 0.8104,-1.34004 0.3354,-0.51236 0.7545,-0.9065 0.4472,-0.39413 1.1458,-0.78826 2.012,-1.2218 5.1977,-1.2218 1.6488,0 2.068,0.39413 0.4471,0.39414 0.4471,1.77358 0,1.06415 -0.056,2.28595 -0.2236,7.09434 -0.2236,10.08972 0,7.56728 0.7266,14.3463 0.4751,3.78365 1.3973,7.68553 0.978,3.46834 1.8723,5.32075 1.0619,2.04947 1.7885,2.99538 0.8942,1.26121 0.8942,1.93123 0,1.2218 -1.4811,3.31069 -2.4871,3.38951 -4.9742,3.38951 -3.4931,0 -6.3435,-4.21719 -1.4532,-2.04946 -2.3194,-4.53247 -0.8384,-2.52243 -1.2576,-6.18784 -0.4191,-3.70481 -0.5589,-9.38028 -0.1956,-6.14841 -0.2235,-6.93668 h -0.1118 q -1.7605,4.76896 -2.9342,7.96142 -1.1737,3.19245 -1.9282,5.28133 -0.7266,2.08889 -1.7326,5.00544 -3.1858,9.30145 -4.1638,11.23269 -0.056,0.0788 -0.2236,0.35472 -0.1677,0.27588 -0.3074,0.43353 -0.4751,0.63062 -1.0898,0.98533 -0.5869,0.3153 -1.0061,0.3153 -1.1737,0 -2.5989,-2.04946 -1.3972,-2.08889 -2.4591,-5.36017 -1.0899,-3.46833 -1.7885,-7.05491 -0.6707,-3.62599 -1.2016,-8.55261 -0.503,-4.96603 -0.8943,-12.09977 h -0.1117 q -0.8384,2.60125 -1.2576,3.90188 -0.4191,1.30063 -1.2854,4.02012 -0.8663,2.71949 -1.0061,3.15303 -1.1457,3.58658 -2.4032,7.25199 -1.2576,3.66539 -2.04,5.63604 -0.7545,1.97065 -1.6767,3.90188 -0.4192,0.9065 -1.4811,2.56184 -1.6488,2.20713 -3.6049,3.46835 -1.9562,1.22179 -3.7167,1.22179 -0.6707,0 -1.1737,-0.47295 -0.503,-0.47296 -0.503,-1.22179 0,-0.67003 0.7545,-1.7736 0.4192,-0.70943 1.8164,-3.62598 l 1.6209,-3.54717 q 1.509,-3.15303 4.555,-11.31152 l 1.3414,-3.54716 q 4.6947,-12.69096 6.3435,-17.34168 1.6487,-4.69015 1.6487,-5.43899 0,-0.82767 -0.8383,-1.85242 -0.6428,-0.74883 -0.6428,-1.30061 0,-0.86709 1.6208,-1.61593 1.6209,-0.78827 3.5211,-0.78827 3.8285,0 5.4493,2.4042 1.006,1.49768 1.8723,5.91194 0.8663,4.37482 1.7326,12.73037 0.056,0.47295 0.084,0.74885 0.028,0.23647 0.056,0.43354 0.028,0.19706 0.028,0.51236 0.1677,1.10357 0.1677,1.45828 0.5868,5.08428 0.8942,6.58197 0.3074,1.45827 0.8942,2.56183 z m 38.7877,8.31614 q 1.2855,-1.2218 1.9561,-2.4436 1.4811,-2.56184 2.2915,-5.87254 0.6428,-2.16771 1.006,-4.84779 0.3633,-2.68008 0.3633,-5.00544 0,-2.16771 -0.6427,-2.16771 -0.8942,0 -2.7386,5.55722 -1.0899,3.35011 -1.7885,6.70021 -0.6707,3.31069 -0.6707,5.71487 0,0.82768 0.2236,2.36478 z m 0.056,1.26121 q 0.3074,2.36478 2.1797,2.36478 2.0959,0 5.4493,-3.46834 1.9561,-2.01006 2.6268,-2.01006 0.8383,0 1.5649,0.63061 0.7266,0.6306 0.7266,1.30063 0,0.70943 -0.8104,1.8524 -1.4811,2.08889 -3.4093,4.09894 -1.9282,1.97065 -3.7167,3.3107 -1.7885,1.30063 -3.577,2.08888 -1.7884,0.74884 -3.1857,0.74884 -3.4931,0 -5.589,-2.79831 -2.0959,-2.83774 -2.0959,-7.52787 0,-3.58658 1.0899,-8.07965 1.1178,-4.53249 2.9901,-8.47379 2.2077,-4.61131 5.4213,-7.68552 3.9682,-3.70482 7.6011,-3.70482 2.6268,0 4.1079,2.36478 1.509,2.32536 1.509,6.4243 0,3.19246 -1.2016,6.66079 -1.1737,3.46834 -3.4931,6.66079 -1.9003,2.68008 -3.7447,4.17777 -1.8164,1.4977 -3.1857,1.4977 -0.6148,0 -1.2575,-0.43355 z m 29.8173,-18.48466 q 1.1178,-4.45366 1.8723,-9.30146 0.7545,-4.8872 0.7545,-7.48845 0,-0.70945 -0.2794,-0.70945 -0.4471,0 -1.5649,2.83775 -1.1178,2.79831 -1.8724,5.71487 -1.6208,6.42431 -2.515,10.6809 -0.8663,4.21719 -1.2016,7.09434 -0.3354,2.87714 -0.3354,5.87252 0,2.56184 0.3912,3.74423 0.4192,1.18239 1.3135,1.18239 1.5369,0 3.4372,-1.89183 1.9003,-1.93123 3.4372,-5.04485 1.2017,-2.32537 1.8723,-2.32537 0.8663,0 0.8663,1.93124 0,4.21719 -1.8723,8.23731 -1.8723,4.02011 -4.8345,6.54254 -2.9342,2.48301 -6.0081,2.48301 -3.7726,0 -6.1479,-3.35009 -2.3754,-3.3501 -2.3754,-8.74967 0,-4.41426 1.3414,-10.3262 1.3414,-5.95135 3.577,-11.94211 2.2635,-6.03019 4.9462,-10.91738 2.6827,-4.88721 5.3096,-7.48847 1.6208,-1.69475 3.6049,-1.69475 1.509,0 2.7386,1.34003 1.2296,1.30063 1.9002,3.66541 0.6707,2.36478 0.6707,5.24193 0,6.18782 -1.7326,12.09976 -1.7046,5.91194 -4.7786,10.24737 -1.4531,2.08888 -2.7945,3.27127 -1.3413,1.18239 -2.3473,1.18239 -0.9781,0 -0.9781,-1.06415 0,-0.59119 0.7266,-2.24653 0.978,-2.16772 2.2915,-6.54256 0.1117,-0.43353 0.2515,-0.9065 0.1397,-0.51236 0.3353,-1.37944 z m 29.7614,-10.16854 q 4.1638,0 4.1638,1.37945 0,1.57652 -1.8723,1.69475 -2.2635,0.19707 -4.2197,1.813 -1.9561,1.61593 -3.4931,4.41425 -1.509,2.79832 -2.3753,6.30607 -0.8384,3.50775 -0.8384,7.40963 0,4.29601 1.4252,6.93668 1.4252,2.60125 3.7167,2.60125 2.1238,0 3.7167,-3.07421 1.5928,-3.07421 1.5928,-7.17315 0,-3.3501 -1.006,-6.26666 -0.9781,-2.95596 -2.8783,-4.96603 -0.8104,-0.90649 -0.8104,-1.30063 0,-0.55178 1.1457,-1.69475 1.2855,-1.22181 2.8784,-2.04947 1.5928,-0.82767 2.6827,-0.82767 1.2575,0 2.3753,0.9459 1.1457,0.9065 2.012,2.64068 0.8663,1.69475 1.3135,3.94129 0.475,2.20712 0.475,4.72954 0,4.17778 -1.1178,8.27672 -1.1178,4.05954 -2.9342,6.58196 -2.3474,3.19246 -5.6728,5.24192 -3.2976,2.01006 -6.2877,2.01006 -2.9062,0 -5.7846,-1.41886 -2.8504,-1.41886 -4.5271,-3.74423 -2.2356,-3.15304 -2.2356,-8.94673 0,-4.57191 1.5929,-9.1438 1.5929,-4.57191 4.3035,-8.27672 2.7386,-3.74423 6.0082,-5.87253 3.2975,-2.16771 6.6509,-2.16771 z m 30.1527,22.30772 v -2.28595 q -1.4252,1.77358 -2.1238,1.77358 -0.3913,0 -0.3913,-0.55178 0,-0.23647 0.1677,-0.98532 0.5868,-2.36478 0.5868,-4.57191 0,-3.19244 -0.978,-6.62137 -0.4192,-1.77358 -1.034,-1.77358 -0.3074,0 -0.503,0.39413 -0.9222,1.49769 -1.7606,4.2566 -0.8383,2.71949 -1.3972,5.95135 -0.531,3.19245 -0.531,5.67546 0,4.69014 2.0121,4.69014 1.006,0 2.6827,-1.65535 1.7046,-1.69474 3.2696,-4.296 z m 0.8663,-18.72114 0.2794,-1.61593 q 0.8663,-5.39958 1.5649,-8.71027 0.6987,-3.35009 1.4252,-5.63604 0.7545,-2.32536 1.4811,-3.35011 1.1737,-1.77358 4.2197,-1.77358 1.3414,0 1.9841,0.19707 0.6707,0.19706 1.0619,0.70943 -1.3414,5.87252 -1.8723,8.8285 -0.503,2.91656 -1.1178,8.04024 -0.9501,8.35555 -0.9501,15.09515 0,4.45366 0.503,9.26204 0.5309,4.76897 1.7046,10.6415 -1.4811,1.45828 -2.8504,2.48301 -1.3413,1.02473 -2.5709,1.61593 -1.2016,0.5912 -2.1238,0.5912 -1.6208,0 -2.2915,-2.24655 -0.5589,-1.8524 -0.7266,-2.95596 -0.1677,-1.14298 -0.5868,-6.26666 -3.7447,5.51781 -7.1819,8.71026 -3.4093,3.15304 -5.4493,3.15304 -2.3473,0 -3.8564,-2.68008 -1.4811,-2.7195 -1.4811,-6.97609 0,-3.82306 1.1458,-8.47378 1.1737,-4.69014 3.2137,-9.06499 1.3413,-2.87714 2.7386,-4.84779 1.4252,-2.01006 3.2136,-3.70481 3.2417,-2.99538 5.4214,-2.99538 1.0619,0 3.1019,1.97065 z m 18.276,36.45695 q -1.2575,-0.11818 -2.2915,-1.61593 -1.034,-1.57651 -1.4811,-3.38951 -0.4192,-1.8524 -0.4192,-4.76896 0,-6.50313 1.7047,-14.66161 1.7326,-8.1979 3.9123,-11.86329 0.8663,-1.53711 2.4033,-1.53711 1.6208,0 2.5988,2.08889 1.006,2.08888 1.006,5.47839 0,5.00545 -1.0339,11.74506 -1.006,6.7002 -2.8504,13.95218 -0.7266,2.91656 -1.7885,3.94129 -0.7265,0.6306 -1.7046,0.6306 z m 3.3534,-39.60999 q -2.6269,-0.11819 -2.6269,-4.45366 0,-2.16772 0.7546,-5.00544 0.7824,-2.87715 1.7605,-4.2566 0.503,-0.74885 1.006,-1.06415 0.531,-0.31531 1.3414,-0.31531 1.3972,0 2.04,0.98533 0.6706,0.94591 0.6706,3.19245 0,2.79831 -0.6986,5.32074 -0.6707,2.48302 -1.8164,4.05954 -1.1458,1.5371 -2.3474,1.5371 z m 22.1604,1.18239 q 2.1238,0.11818 3.3813,1.73417 1.2575,1.61593 1.2575,4.33542 0,2.36478 -0.978,4.76896 -0.9502,2.4042 -2.4313,3.9413 -1.4531,1.53711 -2.9342,1.53711 -0.8663,0 -0.8663,-0.86709 0,-0.31531 0.3354,-1.37946 1.0898,-2.60124 1.0898,-5.99076 0,-1.69476 -0.2794,-1.69476 -0.3913,0 -1.1178,1.41887 -0.7266,1.41886 -1.2296,3.35009 -0.8663,3.03481 -1.4532,6.46372 -0.5589,3.42893 -0.5589,5.79371 0,2.68008 0.5589,4.21719 0.5869,1.5371 1.6209,1.5371 0.9501,0 2.543,-1.41886 1.5928,-1.41887 3.018,-3.50775 0.5869,-1.06416 1.034,-1.06416 0.6707,0 0.6707,1.06416 0,4.84779 -2.6828,8.78908 -1.8443,2.60125 -4.2476,4.21718 -2.3753,1.57652 -4.2756,1.57652 -3.3254,0 -5.5331,-2.95597 -2.2077,-2.95597 -2.2077,-7.44905 0,-4.49307 1.3973,-9.41968 1.4252,-4.96604 3.8564,-9.4197 2.4592,-4.45366 5.5611,-7.44904 2.2356,-2.1283 4.3594,-2.1283 z"
           id="text21"
           inkscape:label="Melodic"
           aria-label="Melodic" /><path
           style="font-size:62.3571px;font-family:Forte;-inkscape-font-specification:'Forte, Normal';text-align:center;text-anchor:middle;fill:#ffffff;stroke-width:1.99124;paint-order:markers fill stroke"
           d="m -1257.7032,612.79152 -0.2795,1.69475 q -0.1397,0.8671 -0.2515,1.4977 -0.1118,0.59119 -0.1956,1.06414 -0.056,0.43355 -0.1397,0.9065 -2.0121,12.13918 -3.2417,15.17398 -0.5588,1.34004 -1.6767,2.40419 -3.521,3.23186 -5.5331,3.23186 -1.3972,0 -2.3753,-1.41886 -0.9501,-1.45828 -0.9501,-3.58658 0,-3.86246 2.4033,-14.26749 0.7265,-3.31068 1.3134,-5.75428 0.6148,-2.44361 1.4531,-5.51782 0.8663,-3.07421 1.9282,-6.54254 1.0899,-3.46834 1.537,-4.8872 -3.6888,0.74884 -7.098,0.74884 -3.4373,0 -3.4373,-3.38951 0,-2.16771 2.2356,-5.51782 1.5091,-2.1677 2.7945,-2.99538 1.2855,-0.86708 3.1019,-0.86708 1.1737,0 3.2137,0.11818 2.04,0.0788 5.6728,0.43355 l 0.7825,0.0788 0.7545,0.11818 q 3.074,0.23649 4.052,0.55179 0.9781,0.3153 1.6767,1.2218 0.5589,0.90649 0.5589,2.08888 0,1.26121 -0.3633,2.60126 -0.3353,1.30063 -0.8383,1.93123 -0.6986,1.10356 -3.9403,1.85241 -0.2794,0 -0.5868,0.0788 l -0.5589,0.15765 q 0.6707,0.94592 0.6707,2.0889 0,1.10356 -0.7825,4.76896 -0.2515,0.90649 -1.2016,5.95135 l -0.4192,2.36478 z m 25.5976,-22.38654 v -0.63062 q 0,-1.45828 -0.2795,-1.45828 -0.3633,0 -1.1457,1.57652 -0.7545,1.57652 -1.3693,3.50775 -1.537,4.92661 -2.7107,10.44444 -1.1737,5.47839 -1.8164,10.95679 -0.2236,2.1283 -0.4751,4.61131 l 0.1398,0.15765 q 2.7945,-4.05952 4.1638,-5.75429 1.3693,-1.69475 3.549,-3.86246 2.7386,-2.68008 4.5271,-2.68008 1.1457,0 1.7605,1.18239 0.6427,1.14298 0.6427,3.19244 0,1.1824 -0.3353,3.38951 -0.5869,4.65073 -0.5869,7.84319 0,1.45826 0.1677,3.07419 0.1397,1.26122 0.9222,5.08428 0.6427,2.91656 0.6427,3.23186 0,0.55178 -0.9221,1.34004 -2.9622,2.7589 -5.4493,2.7589 -2.04,0 -3.3255,-2.79831 -1.2575,-2.79833 -1.2575,-7.29139 0,-1.77359 0.2515,-4.29602 l -0.1397,-0.15765 q -3.9682,5.75429 -5.3096,7.76435 -4.9742,6.77902 -7.6569,6.77902 -1.2296,0 -2.04,-2.28595 -0.7824,-2.32536 -0.7824,-6.03017 0,-7.96142 3.4931,-20.33708 1.3972,-4.80838 2.9621,-9.18322 1.565,-4.41424 2.9902,-7.60669 1.0339,-2.24654 2.1517,-3.90189 1.1458,-1.69475 2.2915,-2.79831 1.1737,-1.14298 2.3753,-1.69476 1.2017,-0.55178 2.4033,-0.55178 2.9901,0 4.8624,2.60126 1.9003,2.60124 1.9003,6.66078 0,2.83773 -1.1457,6.03018 -1.1458,3.19244 -3.2137,6.06959 -1.3134,1.813 -2.9901,3.23186 -1.6488,1.37946 -2.571,1.37946 -0.2794,0 -0.503,-0.2759 -0.2235,-0.27588 -0.2235,-0.70943 0,-0.5912 0.7265,-2.56184 0.8384,-2.16772 1.6488,-5.28133 0.8104,-3.15304 1.2296,-5.95135 0.4471,-2.83773 0.4471,-4.76896 z m 19.4497,35.78694 q 1.2855,-1.2218 1.9561,-2.4436 1.4811,-2.56185 2.2915,-5.87254 0.6428,-2.1677 1.0061,-4.84778 0.3632,-2.68009 0.3632,-5.00545 0,-2.16771 -0.6427,-2.16771 -0.8942,0 -2.7386,5.55723 -1.0899,3.3501 -1.7885,6.70019 -0.6707,3.3107 -0.6707,5.71488 0,0.82768 0.2236,2.36478 z m 0.056,1.26121 q 0.3074,2.36478 2.1797,2.36478 2.0959,0 5.4493,-3.46834 1.9561,-2.01007 2.6268,-2.01007 0.8384,0 1.5649,0.63062 0.7266,0.6306 0.7266,1.30063 0,0.70943 -0.8104,1.8524 -1.4811,2.08889 -3.4093,4.09895 -1.9282,1.97065 -3.7167,3.31068 -1.7885,1.30063 -3.5769,2.08888 -1.7885,0.74885 -3.1858,0.74885 -3.4931,0 -5.589,-2.79831 -2.0958,-2.83773 -2.0958,-7.52787 0,-3.58658 1.0898,-8.07966 1.1178,-4.53249 2.9901,-8.47378 2.2077,-4.61131 5.4214,-7.68552 3.9681,-3.70481 7.601,-3.70481 2.6268,0 4.1079,2.36476 1.509,2.32537 1.509,6.42432 0,3.19245 -1.2016,6.66078 -1.1737,3.46834 -3.4931,6.66079 -1.9003,2.68007 -3.7447,4.17777 -1.8164,1.4977 -3.1857,1.4977 -0.6148,0 -1.2575,-0.43355 z"
           id="text22"
           inkscape:label="The"
           aria-label="The" /></g></g></g></svg>
