<?xml version="1.0" encoding="UTF-8" standalone="no"?>
<!-- Created with Inkscape (http://www.inkscape.org/) -->

<svg
   width="4031.9775"
   height="1709.5527"
   viewBox="0 0 1066.7941 452.31916"
   version="1.1"
   id="svg1"
   inkscape:version="1.3.2 (091e20e, 2023-11-25, custom)"
   sodipodi:docname="The Melodic Monk Academy 2.svg"
   inkscape:export-filename="The Melodic Monk Academy 2.png"
   inkscape:export-xdpi="96"
   inkscape:export-ydpi="96"
   xml:space="preserve"
   xmlns:inkscape="http://www.inkscape.org/namespaces/inkscape"
   xmlns:sodipodi="http://sodipodi.sourceforge.net/DTD/sodipodi-0.dtd"
   xmlns="http://www.w3.org/2000/svg"
   xmlns:svg="http://www.w3.org/2000/svg"><sodipodi:namedview
     id="namedview1"
     pagecolor="#ffffff"
     bordercolor="#999999"
     borderopacity="1"
     inkscape:showpageshadow="2"
     inkscape:pageopacity="0"
     inkscape:pagecheckerboard="true"
     inkscape:deskcolor="#d1d1d1"
     inkscape:document-units="px"
     inkscape:zoom="0.16"
     inkscape:cx="-13068.75"
     inkscape:cy="2146.875"
     inkscape:window-width="1920"
     inkscape:window-height="1051"
     inkscape:window-x="-9"
     inkscape:window-y="-9"
     inkscape:window-maximized="1"
     inkscape:current-layer="layer1"
     showguides="true" /><defs
     id="defs1" /><g
     inkscape:label="Layer 1"
     inkscape:groupmode="layer"
     id="layer1"
     transform="translate(3978.2157,-698.98146)"><path
       style="fill:#a61212;fill-opacity:1;stroke:none"
       d="m -3708.9641,885.22419 c -12.0536,17.6137 -25.7552,33.7645 -33.4498,53.975 -2.4404,6.4099 -5.1468,13.7151 -5.444,20.6375 -4.6865,0 -9.364,0.8343 -14.0229,1.278 -9.1389,0.8703 -18.3509,1.4852 -27.5166,1.8866 -23.3361,1.0218 -46.6627,-0.1002 -69.85,-2.5916 -7.3491,-0.7896 -14.6698,-1.8868 -21.9605,-3.1094 -3.7132,-0.6228 -7.8372,-0.9336 -11.377,-2.2261 -0.529,2.271 5.9082,2.8086 7.6729,3.1741 8.6157,1.7845 17.1948,3.6893 25.9291,4.8379 12.3918,1.6294 24.8264,3.0727 37.3063,3.6192 11.9049,0.5213 23.8205,0.01 35.7187,0.01 8.4793,0 16.9532,-0.4562 25.4,-1.0346 3.6897,-0.2527 8.097,0.2303 11.6417,-0.8175 0.5289,2.2214 0,4.6072 0,6.8792 0,4.2238 0.2183,8.5311 0.9565,12.7 3.6179,20.43161 14.1531,38.77451 29.7352,52.38751 -7.0244,0.019 -14.1767,1.4061 -21.1667,2.0718 -10.9714,1.0448 -22.0565,1.7896 -33.0729,2.0411 -53.4325,1.2197 -110.6129,-3.4363 -157.9562,-30.7607 -25.7003,-14.83301 -48.1233,-42.11741 -42.2513,-73.62931 1.0572,-5.6734 3.0121,-11.4752 6.5047,-16.1396 1.9433,-2.5952 5.497,-4.888 6.907,-7.6729 -2.7546,-0.7896 -5.8857,2.1338 -7.6625,3.9698 -5.4098,5.5898 -8.3438,12.3811 -10.035,19.8427 -5.3241,23.4894 6.9219,47.7213 24.0475,63.1905 17.2853,15.61371 39.5316,25.58761 61.6479,32.25001 40.3847,12.1657 82.9001,15.396 124.8833,13.5575 12.0949,-0.5297 24.1665,-1.3019 36.2479,-2.13 5.7847,-0.3965 11.8938,-1.8263 17.6822,-1.5828 2.2408,0.094 4.7678,2.6537 6.6595,3.7597 4.3655,2.5525 8.995,4.7012 13.7583,6.3949 14.2954,5.0832 30.2758,5.3894 44.9792,2.0038 4.6878,-1.0795 10.0829,-2.3406 14.2875,-4.7311 4.2507,11.0194 9.2265,21.8697 12.9646,33.0729 0.9342,2.8001 1.8918,5.6024 2.6123,8.4667 0.2042,0.8117 0.9018,2.2642 0.5065,3.0709 -0.8314,1.6968 -6.1626,2.5723 -7.8813,3.1452 -7.6405,2.5468 -15.4304,5.4774 -23.2834,7.2777 -4.3798,-16.0077 -23.9111,-18.5924 -36.5125,-10.8308 -4.8482,2.9862 -8.5482,7.2722 -9.7857,12.9474 -0.5397,2.4751 -0.5319,4.8901 -0.533,7.4084 -4e-4,0.9737 0.1876,2.2441 -0.833,2.7744 -1.5305,0.7953 -3.8295,0.9097 -5.517,1.2472 -3.6177,0.7234 -7.2171,1.521 -10.8479,2.176 -12.8538,2.3192 -25.6915,4.3051 -38.6292,6.0479 -36.0887,4.8615 -72.6626,7.153 -109.0083,4.6641 -17.9469,-1.229 -35.3935,-4.8229 -53.1813,-7.1201 v 1.323 c 5.0367,0.4008 10.1237,2.283 15.0813,3.2807 10.2427,2.0615 20.5671,3.7652 30.9562,4.8775 40.0012,4.2825 80.4702,2.0993 120.3854,-1.7633 12.3916,-1.1992 24.7328,-2.7861 37.0417,-4.6952 5.1163,-0.7935 10.9798,-1.1009 15.875,-2.7581 1.1482,5.493 4.2929,10.7932 8.1574,14.793 16.6829,17.267 45.8853,15.8305 64.3384,1.7427 8.6129,-6.5755 13.2213,-15.9025 14.2426,-26.5898 0.3457,-3.6176 -0.2173,-7.2443 -0.2196,-10.848 4.3346,-0.3779 8.8348,-2.5582 12.9645,-3.8777 9.3195,-2.9776 18.565,-6.1527 27.7813,-9.4329 33.3319,-11.8629 65.8204,-25.8735 98.1604,-40.1721 49.7914,-22.0145 99.7524,-43.4815 151.8708,-59.44001 28.9446,-8.8628 58.7236,-15.093 88.6354,-19.5204 19.5041,-2.8869 39.0867,-4.0256 58.7375,-4.886 28.6904,-1.2563 57.6201,-0.039 85.9896,4.7514 23.2198,3.9207 46.7005,9.6286 67.9979,19.9337 18.5789,8.9896 34.231,20.69001 46.0069,37.76701 1.937,2.809 4.4701,5.4182 6.0172,8.4666 9.1655,18.0605 -3.4626,38.1417 -22.3907,41.95 -20.8472,4.1943 -42.5084,-4.4383 -59.7959,-15.5731 -6.8381,-4.4044 -13.5992,-9.6138 -18.9375,-15.7935 -8.3411,-9.656 -16.133,-24.312 -5.1396,-35.1886 1.6578,-1.6401 3.6379,-2.9922 5.8209,-3.8471 2.6973,-1.0562 5.3502,-1.181 8.2021,-1.181 -0.6617,-2.0964 -4.0541,-1.7273 -5.8209,-1.4742 -5.3385,0.7648 -10.1142,3.8812 -13.134,8.3534 -8.3691,12.394 -0.7594,27.4993 7.8834,37.3062 17.5786,19.9462 48.2852,35.0608 75.3652,31.3729 18.0973,-2.4645 36.2185,-15.8478 33.7912,-36.1354 -2.0408,-17.0562 -15.4651,-32.8143 -28.4995,-42.9748 -28.5026,-22.21801 -65.088,-32.37791 -100.2771,-37.83541 -36.7096,-5.6933 -73.9192,-5.6162 -110.8604,-3.0864 -29.2155,2.0007 -58.2583,5.4381 -87.0479,11.0843 -66.6317,13.0679 -131.591,36.29721 -193.4104,64.16191 -32.0174,14.4316 -64.534,28.4928 -97.3667,40.9804 -8.4627,3.2187 -16.8424,6.6363 -25.4,9.6077 -2.2673,0.7873 -6.8428,3.6131 -9.2251,3.0603 -1.3664,-0.3171 -1.6705,-3.3911 -1.9997,-4.5167 -1.3522,-4.6228 -2.9508,-9.1893 -4.4738,-13.7584 -2.3316,-6.9948 -4.9002,-13.9084 -7.2319,-20.9021 -0.5535,-1.66 -2.9034,-5.6952 -2.359,-7.3595 0.285,-0.8715 1.5687,-1.4236 2.2708,-1.9076 2.0861,-1.4381 4.1086,-2.9597 6.0854,-4.5441 3.7026,-2.9676 7.1246,-6.3074 10.1058,-10.0013 1.67,-2.0692 3.027,-4.664 4.8878,-6.5408 0.9683,-0.9767 2.5207,-1.0929 3.7918,-1.4367 2.8254,-0.7643 5.6524,-1.5371 8.4667,-2.3412 10.3713,-2.9636 20.6409,-6.225 30.9562,-9.3756 32.6489,-9.97191 64.4288,-23.35791 95.7792,-36.77341 31.0236,-13.2757 61.7494,-27.199 92.8687,-40.2575 11.285,-4.7355 22.7597,-8.9748 34.1313,-13.487 3.9608,-1.5716 8.4645,-2.5097 12.1708,-4.6169 2.0763,6.384 4.841,13.4739 5.8208,20.1083 -16.2782,-7.5999 -35.2427,-0.9233 -48.4187,10.0754 -6.562,5.4776 -12.9202,14.6997 -8.9853,23.5267 4.1295,9.2634 15.2713,12.5975 24.5957,11.4524 12.0102,-1.475 23.7974,-5.6583 32.5437,-14.363 4.4981,-4.4767 8.0765,-9.8928 8.4113,-16.404 0.1686,-3.2771 -1.2096,-6.7041 -2.1354,-9.7896 -1.6385,-5.4613 -3.1642,-10.9622 -4.8627,-16.4041 -0.7123,-2.2822 -1.3077,-4.6017 -2.0334,-6.8792 -0.2329,-0.7308 -0.8025,-1.8011 -0.2537,-2.5109 0.5874,-0.7598 2.1261,-1.0224 2.9906,-1.3456 2.6996,-1.0092 5.4739,-1.8302 8.2021,-2.7589 7.3692,-2.5085 14.7914,-4.8261 22.225,-7.1362 3.215,-0.9991 7.1382,-1.4985 10.0542,-3.1817 l 0.2645,5.5562 1.323,-0.2646 c 0.1146,-1.4523 0.049,-4.6108 1.173,-5.6348 1.5927,-1.4515 5.4984,-1.6823 7.5582,-2.2655 6.7301,-1.9054 13.5782,-3.3815 20.3729,-5.03 22.4648,-5.45 45.5328,-9.2648 68.5271,-11.4563 9.7579,-0.93 19.5565,-2.3363 29.3687,-2.3363 -4.2524,7.4721 -7.0841,15.9922 -10.6649,23.8125 -2.2296,4.8693 -5.8888,10.5969 -6.7976,15.875 -3.0825,-2.8454 -4.951,-6.0979 -8.7312,-8.3468 -12.2356,-7.2791 -29.3271,-6.7485 -42.3333,-1.8594 -10.7047,4.0238 -22.671,16.996 -14.4357,28.727 1.5282,2.177 3.5389,3.853 5.7044,5.3654 14.9218,10.4219 42.2717,11.4182 55.2733,-2.7195 3.2328,-3.5154 4.791,-8.1562 6.7201,-12.4354 3.0541,-6.7748 6.1028,-13.558 9.0673,-20.373 3.1593,-7.2628 6.4129,-14.4892 9.6983,-21.6958 0.767,-1.6827 1.8679,-6.5002 3.9193,-6.8399 6.7502,-1.1181 14.3135,-0.3038 21.155,-0.3038 1.9678,0 5.9783,-0.7583 7.6242,0.4242 1.2444,0.8941 2.1259,2.783 2.9053,4.0737 2.3967,3.9689 4.158,8.4329 5.1365,12.9646 4.325,20.0302 -5.2026,40.1498 -22.8097,50.5354 3.3918,3.8972 7.9806,-1.0479 10.8479,-3.4184 7.7035,-6.3685 15.6421,-14.1875 18.4835,-24.0983 0.9585,-3.3434 1.8,-6.8235 1.8855,-10.3187 0.057,-2.3215 -0.6776,-5.4719 -0.1247,-7.673 0.3481,-1.3856 1.5482,-2.522 2.2951,-3.7041 1.7465,-2.7641 3.4398,-5.5432 4.9118,-8.4667 1.0422,-2.0699 1.7893,-4.1845 2.599,-6.35 0.2887,-0.7718 0.4875,-2.1665 1.2815,-2.5936 0.7756,-0.4172 2.2345,-0.01 3.0641,0.1001 2.1755,0.2864 4.4245,0.4427 6.6146,0.6188 9.3831,0.7542 18.7831,2.2085 28.0459,3.8791 24.6237,4.4411 49.0775,11.3627 71.1729,23.3139 15.1095,8.1727 29.5391,19.1937 38.3617,34.213 9.1778,15.6237 12.7171,37.5968 3.2891,53.975 -1.992,3.4603 -4.7805,6.138 -7.5145,8.99581 -0.6581,0.688 -2.0614,2.7308 0,2.477 2.3862,-0.2938 4.4882,-2.4675 6.0801,-4.0645 4.3383,-4.35241 7.0437,-9.78201 8.785,-15.61041 6.6275,-22.1846 -2.3795,-44.7289 -17.0624,-61.3834 -10.8515,-12.3087 -26.125,-21.1856 -40.9349,-27.862 -31.1369,-14.0369 -65.5974,-20.528 -99.4833,-23.2025 1.9372,-8.1372 8.8438,-14.4067 11.7231,-22.4896 4.6028,-12.9212 3.1201,-26.0164 -0.8819,-38.8938 -1.1803,-3.7979 -2.9689,-7.3643 -4.2266,-11.1125 7.6259,1.4209 15.3816,2.1789 23.0187,3.6521 30.1915,5.824 63.0313,15.7263 86.7834,36.111 11.2187,9.6281 19.7762,22.164 28.0458,34.3203 h 0.2646 c -0.406,-3.0123 -1.8761,-5.9568 -3.0635,-8.7313 -3.9795,-9.2982 -10.2999,-17.5903 -17.6495,-24.4644 -22.562,-21.1021 -53.0638,-32.3179 -82.7391,-39.1279 -8.7749,-2.0137 -17.624,-3.3244 -26.4583,-4.9866 -2.7464,-0.5168 -7.6704,10e-4 -9.9807,-1.5726 -1.8029,-1.2281 -2.6129,-5.6533 -3.3606,-7.636 -2.9508,-7.8246 -5.4436,-16.4422 -5.4441,-24.8708 -2e-4,-2.7616 0.3011,-5.5026 0.9062,-8.2021 0.1959,-0.8738 1.1013,-2.4805 0.6464,-3.3289 -0.6199,-1.1563 -3.7819,-2.1163 -4.9922,-2.4919 -1.0931,3.7957 -3.2013,7.4979 -4.7995,11.1125 -3.1612,7.1498 -6.3635,14.2807 -9.525,21.4312 l -3.6304,8.2021 c -0.4084,0.9169 -0.8677,2.5942 -1.7349,3.1677 -1.3367,0.8837 -4.218,0.1942 -5.7102,0.052 -4.217,-0.4014 -8.7293,-0.3096 -12.9646,-0.3096 -16.3905,0 -32.8644,0.4852 -49.2125,1.6112 -27.7207,1.9094 -55.5015,5.1856 -82.8146,10.5599 -9.4645,1.8623 -18.9242,3.8294 -28.3104,6.0546 -3.9547,0.9375 -9.4539,3.4586 -13.4937,3.1256 -1.4713,-0.1213 -2.9094,-1.2187 -4.2334,-1.8088 -3.0601,-1.3638 -6.1198,-2.744 -9.2604,-3.9188 -10.8056,-4.0417 -21.9642,-7.5212 -30.6917,-15.404 -5.5635,-5.0251 -9.3438,-11.2663 -13.4937,-17.4176 27.6187,-10.7156 54.9304,-21.9437 83.3437,-30.5011 49.4717,-14.8998 99.8036,-23.6085 151.3417,-25.8655 41.1372,-1.8015 83.0068,1.4752 122.7667,12.8235 21.9386,6.2617 44.7195,15.7115 61.9124,31.0638 9.4428,8.4318 17.7263,18.5645 21.7841,30.7356 5.0999,15.2971 5.3253,34.8875 -5.868,47.625 -1.4055,1.5993 -3.0801,3.0063 -4.4232,4.65 -0.7858,0.9616 -0.2918,1.8095 0.9438,1.5916 5.6144,-0.9902 10.2832,-8.9463 12.3964,-13.65 6.7042,-14.9229 5.3516,-33.8584 -1.8364,-48.4187 -18.0475,-36.5577 -61.6646,-52.8435 -98.9321,-61.6785 -38.6397,-9.1604 -78.8147,-10.7976 -118.2687,-8.756 -44.6357,2.3098 -88.6537,7.6711 -132.2917,18.0164 -50.5079,11.9739 -98.9678,30.286 -146.8437,50.0736 -26.2321,10.842 -52.2282,22.3284 -78.3167,33.5255 -7.2792,3.1243 -14.6055,6.1465 -21.9604,9.0885 -2.32,0.9281 -6.2023,3.5376 -8.7312,3.2269 -2.244,-0.2758 -5.075,-3.0824 -6.8792,-4.3752 -7.0516,-5.0528 -12.3231,-10.7735 -16.6688,-18.2191 -1.0657,0.2067 -4.3873,0.3196 -4.8437,1.4374 -0.7394,1.8107 1.1758,6.461 1.6344,8.3522 1.7463,7.1999 3.5646,14.4436 5.0614,21.6958 l -21.4312,7.7544 -38.6292,12.5062 -36.2479,9.6679 -18.7854,4.2027 c 0.8354,-2.9 2.4617,-5.6575 3.5853,-8.4666 2.2201,-5.5502 4.0088,-11.36 5.2982,-17.1979 3.082,-13.9534 3.8131,-29.3528 0.8503,-43.3917 -2.0876,-9.8924 -6.1556,-19.3688 -10.226,-28.575 -4.0945,-9.2606 -8.4693,-18.9289 -14.6818,-26.9875 -2.2841,-2.9629 -5.6621,-7.0202 -9.6968,-7.3585 -3.7962,-0.3184 -7.5725,3.0513 -10.0542,5.5074 -2.021,2.0002 -3.7545,4.2136 -5.2776,6.6136 -4.2402,6.6812 -6.7003,14.3354 -8.6065,21.9604 -5.3312,21.3249 -4.4127,42.5423 0.886,63.7646 1.8969,7.5976 4.079,15.1654 6.8618,22.4896 0.8369,2.2026 1.6095,4.4259 2.485,6.6146 0.3635,0.9088 1.146,2.1666 0.9744,3.175 -0.1688,0.9922 -1.1639,1.8904 -1.7682,2.6458 -1.4709,1.8387 -2.9601,4.7498 -4.8641,6.1146 -1.4896,1.0678 -4.0187,0.9241 -5.7721,1.0526 -3.2633,0.2393 -6.5323,0.7539 -9.7895,1.0796 -14.6507,1.4648 -29.2544,1.8848 -43.9209,2.8894 -17.8436,1.2221 -35.933,0.1541 -53.7104,-1.5663 -33.1473,-3.2077 -66.6577,-10.5553 -96.3083,-26.16 -22.7277,-11.9613 -44.5126,-32.0204 -47.8139,-58.8162 -3.4398,-27.9206 14.7231,-51.4936 36.966,-66.3222 14.8363,-9.8909 31.7066,-16.3052 48.9479,-20.5601 29.2414,-7.2164 59.9921,-8.0607 89.4291,-1.7531 27.2169,5.8319 62.0993,22.7514 63.4896,54.5042 1.0283,23.4838 -15.0855,41.8756 -35.1791,51.9237 -24.0793,12.0411 -52.0907,15.5507 -78.5813,11.6482 -11.851,-1.7459 -24.1364,-5.1556 -34.1312,-11.9857 -4.052,-2.769 -7.7055,-6.2241 -10.446,-10.3112 -1.6596,-2.4752 -3.0305,-5.3179 -3.8005,-8.2021 -4.7303,-17.718 9.1959,-32.651 25.8881,-36.5125 -0.6812,-2.0526 -4.5567,-0.5896 -6.0854,-0.1515 -5.7198,1.6396 -11.1538,4.9604 -15.3458,9.1473 -12.0745,12.0598 -10.2367,31.9932 0.343,44.4499 10.0303,11.8097 25.3946,17.5591 40.1382,20.6934 30.3096,6.4434 64.4016,0.3191 90.2229,-16.8952 16.1977,-10.7984 29.0107,-27.9591 29.8875,-47.9835 0.2254,-5.1472 -0.09,-10.3251 -1.2818,-15.3458 -6.6918,-28.1962 -36.0472,-42.0933 -61.414,-49.324 -16.5872,-4.7281 -34.2108,-5.6757 -51.3292,-4.926 -33.678,1.4749 -69.1037,10.4161 -96.5729,30.6715 -12.4877,9.2082 -22.3559,20.6554 -29.4636,34.4264 -2.9684,5.751 -5.4795,11.5217 -6.4064,17.9917 -2.1404,14.9409 2.3714,30.4535 10.1554,43.1271 4.6576,7.5832 11.048,14.0341 17.7771,19.7719 13.7295,11.7068 30.732,19.8866 47.625,25.9195 17.2064,6.1449 35.0976,10.5578 53.1813,13.1216 7.7064,1.0926 15.4927,2.5542 23.2833,2.8377 6.3529,0.2312 12.6968,1.0315 19.05,1.3097 18.751,0.8212 37.9446,0.2549 56.6208,-1.0243 9.6613,-0.6617 19.8302,-0.3694 29.3688,-2.1403 m 18.7854,-23.2833 h -0.5292 c -10.8089,-20.2967 -11.2731,-45.3823 -4.5044,-66.9396 3.0844,-9.8234 10.5126,-22.4582 22.7607,-20.25 9.8328,1.7727 11.1125,15.99 11.1125,23.9541 0,17.9588 -6.6193,33.8324 -16.8594,48.4188 -3.6551,5.2063 -8.347,9.6541 -11.9802,14.8167 m 326.4958,-85.1959 10.431,35.4542 4.3857,15.3458 c -29.3845,9.5581 -58.354,20.6586 -86.7833,32.7688 -10.0547,4.283 -20.1356,8.5022 -30.1625,12.8519 -4.6865,2.0329 -10.0496,5.3712 -15.0813,6.2377 -1.3444,-10.5818 -5.7958,-21.3527 -13.3047,-29.0593 -3.0628,-3.1435 -6.4935,-5.9413 -9.9786,-8.603 -1.3708,-1.047 -3.9302,-2.2025 -4.4979,-3.8773 10.9034,-2.982 21.5275,-8.383 32.0145,-12.5812 25.2509,-10.1084 49.8657,-21.7094 74.8771,-32.3641 8.8388,-3.7652 17.5874,-7.7245 26.4584,-11.414 3.6898,-1.5347 7.7047,-4.0599 11.6416,-4.7595 m 264.0542,8.9959 5.5562,8.202 c -1.5943,-0.2015 -5.4879,0.2107 -6.7156,-0.801 -1.1697,-0.964 0.2921,-6.0939 0.6302,-7.401 h 0.5292 m -255.8521,3.7041 c 6.9808,9.7184 17.104,16.1848 27.7813,21.2247 4.5071,2.1274 9.3641,3.6873 13.7583,6.0274 -1.7988,1.4374 -4.9454,1.7477 -7.1438,2.3813 -5.3925,1.554 -10.7808,3.1043 -16.1395,4.7692 -1.5189,0.4719 -6.1143,2.7389 -7.5372,1.8274 -0.6749,-0.4323 -0.8034,-1.6568 -1.0065,-2.3633 -0.6094,-2.1196 -1.3169,-4.2161 -1.8733,-6.35 -1.6653,-6.3863 -3.6658,-12.749 -5.6324,-19.05 -0.6923,-2.2182 -2.6077,-6.2183 -2.2069,-8.4667 m 243.9458,7.4084 0.2646,0.2645 c -7.8816,17.4245 -15.7882,34.8555 -23.4356,52.3875 -2.3506,5.3887 -4.6124,10.8562 -7.1913,16.1396 -0.8407,1.7224 -1.3994,4.6121 -2.8792,5.889 -0.7722,0.6664 -2.0637,0.4606 -3.0064,0.461 -2.2977,10e-4 -4.5724,0.2637 -6.8792,0.2646 -7.947,0 -16.164,0.8793 -24.077,1.6324 -20.3091,1.9329 -40.4611,4.6323 -60.5896,8.0078 -6.1733,1.0352 -12.42,2.1568 -18.5209,3.5592 -4.2057,0.9667 -8.6618,2.3332 -12.9645,2.6756 0.5049,-6.386 1.9551,-12.6114 2.1128,-19.05 0.2861,-11.6924 -3.1506,-22.8097 -9.1119,-32.8083 -2.2517,-3.7768 -5.0131,-7.4384 -8.0861,-10.5834 -1.7202,-1.7605 -4.4694,-3.3337 -5.5523,-5.5562 16.2789,-4.2133 32.4435,-8.7504 48.9479,-12.052 21.3629,-4.2735 42.8897,-7.2707 64.5583,-9.3343 14.4858,-1.3796 29.0955,-1.897 43.6563,-1.897 h 15.6104 c 2.2812,0 4.9427,0.518 7.1437,0 m 29.1042,63.5 c 0,-16.2832 -9.6281,-31.5301 -14.6403,-46.5667 -1.6853,-5.0561 -3.5715,-10.7633 -3.616,-16.1396 2.4946,0.052 7.8408,-0.3073 9.9511,1.0646 0.9456,0.6147 1.5931,2.2132 2.1446,3.1687 1.4551,2.521 2.9704,5.0256 4.1868,7.673 4.9248,10.7182 8.8575,21.8765 7.574,33.8666 -0.4869,4.5479 -1.4684,8.7915 -3.3572,12.9646 -0.6054,1.3375 -0.9346,3.1776 -2.243,3.9688 m -31.75,-42.8625 c 3.5544,2.7265 6.1751,7.9327 8.6431,11.6416 8.546,12.8429 14.6402,27.2825 14.6402,42.8625 -2.4779,0 -4.9243,-0.2644 -7.4083,-0.2646 -0.9197,0 -2.2504,0.2172 -2.9901,-0.4609 -0.9622,-0.8822 -1.3474,-2.8514 -1.8255,-4.037 -1.113,-2.7601 -2.4395,-5.4196 -3.4988,-8.2021 -3.7847,-9.941 -8.4872,-20.6635 -8.62,-31.4854 -0.037,-3.0205 -0.5676,-7.3386 1.0594,-10.0541 m -208.2271,84.402 c -4.3023,-15.7635 -9.2242,-31.4686 -14.0294,-47.0958 -1.3224,-4.3005 -2.5753,-8.6369 -3.8092,-12.9646 -0.3238,-1.136 -1.5409,-3.5513 -1.1046,-4.6898 0.3484,-0.9091 1.9892,-1.2084 2.8036,-1.4836 2.6569,-0.8975 5.3034,-1.8739 7.9375,-2.8365 6.908,-2.5243 13.926,-4.7161 20.9021,-7.0414 2.6955,-0.8985 6.9476,-2.9704 9.7896,-2.7314 1.664,0.1399 3.5847,1.4155 5.0271,2.1957 7.9279,4.2881 16.2407,10.6153 19.7238,19.2329 2.9978,7.4166 2.5952,16.5174 3.3398,24.3416 0.4602,4.8348 0.2021,9.7301 -0.2646,14.5521 -0.1351,1.396 0.1493,4.0146 -0.8223,5.1359 -0.7636,0.8815 -2.9019,0.9413 -3.985,1.1614 -3.1055,0.6313 -6.1834,1.509 -9.2605,2.2684 -7.9852,1.9707 -15.9073,4.167 -23.8125,6.4386 -4.0539,1.1649 -8.2654,2.9007 -12.4354,3.5165 m -23.0187,-63.5 13.155,44.9792 3.8898,13.2292 1.7406,6.8791 c -5.749,1.1898 -11.367,3.5446 -16.9333,5.3789 -14.5404,4.7915 -28.8073,10.2741 -43.1271,15.6753 -44.5332,16.7974 -87.8863,36.8465 -131.7625,55.2581 -17.797,7.4681 -35.7913,14.5013 -53.975,20.97301 -5.1926,1.848 -10.3811,3.7181 -15.6104,5.4613 -2.4446,0.8148 -5.1012,2.0671 -7.6729,2.293 1.1448,-4.9936 2.4097,-9.92781 2.6354,-15.08121 0.5689,-12.9907 -3.7262,-26.6874 -11.2183,-37.3063 -2.219,-3.1451 -5.4325,-6.1178 -8.3505,-8.6179 -1.5461,-1.3248 -3.9777,-2.6169 -5.0271,-4.3467 l 8.4667,-2.0766 17.4625,-4.9548 64.8229,-22.0727 3.2873,14.2875 4.121,17.9916 c -2.9278,-1.9363 -5.5605,-4.164 -8.7312,-5.7493 -8.0007,-4.0004 -18.674,-5.6607 -27.5167,-4.4569 -4.3072,0.5863 -8.619,1.6742 -11.8825,4.7266 -5.774,5.4002 -5.248,15.4159 -1.6477,21.8838 7.517,13.5044 23.3676,17.286 37.6073,16.9372 7.4854,-0.1833 16.5964,-2.4571 19.4638,-10.3226 2.3978,-6.5772 -0.073,-13.337 -1.5644,-19.8438 -2.8425,-12.4036 -5.9521,-24.8157 -8.3744,-37.3062 9.1243,-3.5389 18.1774,-7.2389 27.2521,-10.901 2.3068,-0.9309 4.5933,-1.9482 6.8792,-2.9317 0.8753,-0.3766 2.1891,-1.2494 3.1739,-1.0326 1.0243,0.2255 1.6632,1.3941 2.2431,2.1653 1.6364,2.1765 3.0874,4.4403 4.3068,6.8792 3.9852,7.9704 5.3608,16.8475 5.3574,25.6645 0,3.1011 -0.3321,8.0094 -2.6458,10.3188 v 0.2646 l 2.9104,1.0583 c 2.499,-12.1078 3.6273,-23.8546 0.1515,-35.9833 -0.8056,-2.8111 -2.0015,-5.6577 -3.4388,-8.2021 -0.9515,-1.6844 -2.4281,-3.3782 -2.7981,-5.2917 l 12.4354,-5.21 20.1083,-8.8498 67.9979,-29.1861 23.2834,-9.1557 9.525,-3.4255 m -177.0063,4.6096 c 2.8745,-0.4101 7.1389,2.909 9.525,4.2748 9.2428,5.2904 17.3506,12.2008 23.0321,21.2781 1.7565,2.8066 3.2496,5.8547 4.308,8.9959 0.3036,0.901 1.1277,2.4095 0.786,3.3669 -0.3701,1.0368 -2.8061,1.7615 -3.7844,1.9699 -1.583,0.3371 -2.8619,-1.1815 -3.9688,-2.0957 -2.6988,-2.2289 -5.5572,-4.212 -8.4666,-6.1515 -9.0405,-6.027 -18.4365,-11.2932 -26.1938,-19.05 -1.8728,-1.8728 -3.6392,-3.7498 -5.2916,-5.8209 -0.454,-0.569 -1.4772,-1.4939 -1.3448,-2.3077 0.1421,-0.8727 1.9875,-1.1897 2.6677,-1.4473 2.6977,-1.0216 5.8772,-2.6053 8.7312,-3.0125 m 394.4938,6.2384 10.5027,15.875 3.7848,6.0854 -17.4625,0.2646 h -7.1438 l 9.7896,-22.225 h 0.5292 m -413.8084,0.5291 c 2.3093,17.1481 9.426,33.6412 11.6417,50.8 -9.8944,3.5898 -19.5765,7.9731 -29.3687,11.8524 -14.9779,5.9335 -30.2246,11.2753 -45.5084,16.3699 -8.1681,2.7227 -16.477,5.8123 -24.8708,7.7505 -3.6316,0.8385 -8.9186,-1.4367 -12.7,-1.7966 -7.0968,-0.6754 -14.5909,0.522 -21.4312,2.3363 -4.5763,-8.593 -6.7979,-18.9281 -10.2065,-28.0458 -0.902,-2.4127 -3.9574,-7.8012 -3.1248,-10.3188 0.5128,-1.5505 2.1852,-2.9361 3.1505,-4.2333 2.3633,-3.1758 4.7187,-6.4135 6.7912,-9.7896 0.9122,-1.486 1.9644,-4.3447 3.6656,-5.0187 5.2051,-2.0624 11.9507,-1.9391 17.451,-3.0376 12.5556,-2.5076 25.1041,-4.9452 37.5709,-7.8807 15.2889,-3.6 30.4717,-7.7695 45.5083,-12.2993 6.9315,-2.0881 14.289,-5.6338 21.4312,-6.6887 m 446.0875,40.4813 -3.9687,-14.0229 c 1.9291,-0.5703 3.8617,-0.055 5.8208,0 0.6856,0.018 1.8887,-0.1789 2.3635,0.4648 0.5888,0.7984 -0.2192,2.6427 -0.3926,3.5078 -0.5464,2.7267 -1.3579,8.4256 -3.823,10.0542 m -403.4895,-2.9105 v 0.2646 c -9.0875,2.1584 -17.0795,8.6831 -26.1938,10.8479 l -5.0271,-21.9604 8.7313,2.9984 22.4896,7.8495 m -184.15,18.5209 3.4763,10.8479 8.1653,23.5479 -9.525,6.5627 -3.9924,3.5207 -12.6763,2.3735 -21.1667,3.4181 c 1.4529,-5.0436 4.9761,-10.1389 7.7572,-14.5521 5.0391,-7.9959 10.5186,-15.6808 16.4816,-23.0187 3.4537,-4.2501 7.5499,-8.2302 10.6862,-12.7 h 0.7938 m -8.2021,52.6521 c -3.5834,7.5745 -7.6027,13.8842 -8.4218,22.4895 -1.4177,14.8959 6.608,29.34741 17.6822,38.78231 4.2009,3.5791 9.4575,7.2911 15.0813,8.049 v 0.5292 c -9.4264,0.745 -18.9705,3.4617 -28.3105,5.0058 -2.7724,0.4584 -8.2349,2.4018 -10.8479,1.2233 -4.0536,-1.8282 -7.8945,-6.7603 -10.5517,-10.1979 -9.9577,-12.8826 -13.0878,-29.96711 -9.9269,-45.77291 0.7721,-3.8611 1.7699,-7.6418 3.0161,-11.3771 0.42,-1.2588 0.7967,-3.3975 1.7733,-4.3393 1.5457,-1.4905 6.9735,-1.2975 9.0746,-1.4815 6.9984,-0.6129 14.599,-1.2794 21.4313,-2.9104 m 57.15,61.64791 c -4.4738,-13.2233 -9.525,-26.27041 -14.2061,-39.42291 -1.9742,-5.5471 -5.296,-11.649 -6.1668,-17.4625 5.8409,0 11.4162,-0.6091 17.1979,0.7631 14.5292,3.4482 24.9962,15.3476 28.2179,29.6639 1.0478,4.6562 1.3628,9.82041 0.734,14.55211 -0.1737,1.3064 0.013,3.5184 -0.8897,4.5768 -1.1997,1.4058 -4.9012,1.806 -6.631,2.3024 -5.9333,1.7027 -12.132,4.2017 -18.2562,5.0271 m -28.0458,-54.50421 13.6768,38.36461 6.4315,18.2562 -16.1396,3.7042 c -0.8484,-2.437 -4.244,-2.9887 -6.35,-4.0343 -4.5309,-2.2494 -9.2238,-4.872 -12.6549,-8.6659 -10.7675,-11.906 -6.3023,-29.67561 4.1884,-40.21651 2.8718,-2.8854 6.7457,-6.4696 10.8478,-7.4083 m 47.8895,59.00211 c -2.1583,4.8437 -8.6047,11.1727 -13.4937,13.2292 l -2.2292,-6.35 -0.7306,-2.5656 4.0181,-1.4338 12.4354,-2.8798 m -20.902,17.1979 c -5.0751,1.3881 -9.8699,3.2801 -15.0813,4.2854 -15.5381,2.9973 -33.0558,2.1172 -47.0958,-5.8729 3.7338,-1.6762 8.9352,-1.3688 12.9646,-1.9652 10.0805,-1.4921 20.1342,-3.2169 30.1625,-5.0262 3.5375,-0.6383 7.0415,-1.4541 10.5833,-2.0706 1.1326,-0.1971 3.0529,-1.0038 4.1606,-0.5575 0.9286,0.3741 1.1928,1.9023 1.4865,2.7403 0.9625,2.7466 2.3931,5.5791 2.8196,8.4667 m 20.3729,63.7646 c 0.8871,3.0011 -0.1522,7.0589 -0.7938,10.0542 -3.0407,14.1946 -16.1148,24.5354 -30.1625,26.5696 -7.0569,1.0218 -19.3977,1.8855 -21.9604,-6.9905 12.317,-0.01 21.4415,-9.0972 21.6958,-21.4312 l 11.1125,-2.6765 z"
       id="path6" /></g></svg>
